<?xml version="1.0" encoding="UTF-8"?>
<svg id="Layer_1" xmlns="http://www.w3.org/2000/svg" version="1.1" viewBox="0 0 724.5 97.7">
  <!-- Generator: Adobe Illustrator 29.0.0, SVG Export Plug-In . SVG Version: 2.1.0 Build 186)  -->
  <defs>
    <style>
      .st0, .st1 {
        fill: none;
      }

      .st2 {
        fill: #88898a;
      }

      .st1 {
        stroke: #000;
        stroke-miterlimit: 10;
      }

      .st3 {
        fill: #0051ba;
      }
    </style>
  </defs>
  <g id="Layer_11" data-name="Layer_1">
    <g>
      <path class="st2" d="M109.6,1.2h-2.6c-1,.1-1.4.2-1.7.6,0,.2-.2.4-.3.6,0,.1,0,.2-.2.2s-.2-.1-.2-.3.3-1.9.4-2C105,.2,105.1,0,105.2,0c.2.1.5.2.7.2.6.1,1.2.1,1.7.1h6.9c.4,0,.8,0,1.2-.1.3,0,.4-.1.5-.1s0,.1,0,.4v2c0,.2,0,.3-.2.3s-.2-.1-.2-.4v-.2c0-.5-.5-.9-2.1-1h-2.3c0-.1,0,7.1,0,7.1,0,1.6,0,3,0,3.7,0,.5,0,.9.7.9h1.2s0,.2-.3.2h-4.9c-.2,0-.4,0-.4-.2s0,0,.3,0h.6c.4,0,.5-.5.5-.9,0-.7,0-2.1,0-3.7,0,0,.2-7.1.2-7.1Z"/>
      <path class="st2" d="M128.2,5.8h.1V1.7c0-.6-.2-.9-.7-1h-.7c-.2,0-.3,0-.3-.2s0-.2.4-.2h4.6c.2,0,.4,0,.4.2s-.1.2-.3.2h-.5c-.5.1-.6.4-.6,1v6.8c0,1.6,0,3,.1,3.7.1.5.2.9.7.9h1.2s-.1.2-.4.2h-4.9c-.2,0-.4,0-.4-.2s0,0,.3,0h.6c.4,0,.4-.5.5-.9.1-.7.1-2.1.1-3.7v-1.5h-6.7c0,0-.1,0,0,0h0v1.5c0,1.6,0,3,0,3.7,0,.5.2.9.7.9h1.2s0,.2-.4.2h-4.9c-.2,0-.3,0-.3-.2s0,0,.3,0h.6c.4,0,.4-.5.5-.9,0-.7,0-2.1,0-3.7V1.7c0-.6-.2-.9-.7-1h-.7c-.2,0-.3,0-.3-.2s0-.2.4-.2h4.7c.2,0,.4,0,.4.2s0,.2-.3.2h-.5c-.5.1-.6.4-.6,1v4.1h6.3Z"/>
      <path class="st2" d="M135,5.3V1.6c0-.6-.2-.9-.7-1h-.7c-.2,0-.3,0-.3-.2s.1-.2.4-.2h7.5c.1-.1.2-.2.3-.2s.1.1.1.2-.1.3-.1,1.1,0,.9-.1,1.1,0,.2-.2.2-.2-.1-.2-.2c0-.2,0-.4-.1-.6-.1-.3-.3-.5-1.2-.6-.3,0-2.1-.1-2.4-.1s-.1,0-.1.2v4.4s0,.2.1.2h2.8c.3,0,.6,0,.8-.3.1,0,.2-.2.3-.2h.1c-.1.4-.1.8-.1,1.2s-.1,1-.1,1.2,0,.3-.2.3h-.2c0-.2,0-.4-.1-.6-.1-.4-.3-.6-1-.7h-2.4c0,0-.1,0-.1.2v4c0,1.2.3,1.5,2.1,1.5s1.1,0,1.6-.2.7-.6.8-1.3c0-.2.1-.3.2-.3s.1,0,.1.3c0,.6-.1,1.3-.2,1.9-.1.5-.3.5-.9.5h-7.1c-.2,0-.4,0-.4-.2s.1,0,.3,0h.6c.3,0,.4-.5.5-.9.1-.7.1-2.1.1-3.7l.2-3.1v-.2Z"/>
      <path class="st2" d="M150.4,5.3V1.6c0-.6-.2-.9-.8-1h-.7c-.2,0-.3,0-.3-.2s.1-.2.4-.2h4.6c.3,0,.4,0,.4.2s-.1.2-.3.2h-.5c-.5.1-.6.4-.6,1v6.1c0,2.5.5,3.6,1.4,4.3.6.5,1.4.7,2.2.7s1.8-.3,2.4-.9c1-1,1-2.5,1-4.3V1.6c0-.6-.2-.9-.8-1h-.6c-.2,0-.3,0-.3-.2s.1-.2.4-.2h4c.2,0,.4,0,.4.2s-.1.2-.3.2h-.5c-.5.1-.6.4-.6,1v5.6c0,1.9-.2,4-1.7,5.2-1,.9-2.3,1.3-3.7,1.2-1.4,0-2.8-.3-3.9-1.2-.9-.8-1.5-2.1-1.5-4.6v-2.5h0Z"/>
      <path class="st2" d="M165.6,11.1c0,1.4.3,1.8.6,1.9h1.2s-.2.2-.4.2h-4.1c-.2,0-.4,0-.4-.2s.1,0,.3,0h.8c.5,0,.5-.6.5-2.2l.2-10.2C164.3.2,164.3,0,164.5,0s.4.2.6.5c.3.3,2.8,3.1,5.4,5.5,1.2,1.2,3.5,3.7,3.8,4h.1l-.2-7.8c0-1.1-.2-1.4-.6-1.6-.3-.1-.6-.1-.9-.1s-.3,0-.3-.2.2-.2.5-.2h3.8c.2,0,.4,0,.4.2s-.1.2-.3.2h-.5c-.5.1-.6.5-.6,1.5l-.2,11c0,.4-.1.5-.2.5-.2,0-.4-.2-.6-.4-1.1-1-3.3-3.3-5.1-5.1s-3.8-4.1-4.1-4.4h0v7.5h.1Z"/>
      <path class="st2" d="M205.8,10.8q-.1,0-.2.3c-.1.7-.3,1.1-.8,1.3s-1.1.2-1.6.2c-1.8,0-2-.3-2.1-1.5v-4.1s0-.2.1-.2h2.4c.6,0,.9.3,1,.7s0,.5.1.6v.2h.1c.2,0,.2-.2.2-.3s0-.8.1-1.2c0-.9.1-1.2.1-1.2h-.1c-.1,0-.2,0-.3.2-.2.2-.5.3-.8.3h-2.8c0,0,0,0-.1-.2V1.6c0-.1,0-.2.1-.2.3,0,2.2,0,2.4.1.9.1,1,.3,1.2.6.1.2.1.4.1.6s0,.2.2.2.2-.1.2-.2.1-1,.1-1.1c0-.4.1-.8.1-1.1s0-.2-.1-.2-.2,0-.3.1h-.7c-.3.1-3.8.1-4.3.1h-6.2c-.3,0-.5,0-.5.2s.1.1.3.1.5,0,.7.1c.1,0,.2.2.2.3,0,.2-.1.4-.1.6-.4,1.1-2.7,6.7-3.4,8.7h0l-3.1-7.9c-.2-.4-.3-.9-.4-1.3,0-.1.1-.3.2-.4.2-.1.4-.1.7-.1s.3,0,.3-.2-.2-.2-.4-.2h-9.5c-.3,0-.4,0-.4.1s.1.2.3.2.4,0,.6.1c.4.1.5.4.6,1v6.8c0,1.7,0,3.1-.1,3.8,0,.5-.2.8-.5.9h-.9s.1.2.4.2h4.9c.2,0,.3,0,.3-.2s-.1,0-.3,0h-.9c-.5,0-.6-.4-.7-.9-.1-.7-.1-2.1-.1-3.8V1.8c0-.6.2-.9.6-1h.6c.2,0,.5,0,.7.1.6.2.9.4,1.3,1.3l4.4,10.6c.3.8.4,1.1.7,1.1s.4-.3.8-1.3l2.4-5.4c.9-2.1,1.4-3.1,2.1-4.7.5-1.1.7-1.4,1-1.6s.6-.2.9-.2h.9c.6.1.7.4.7,1v6.8c0,1.6,0,3-.1,3.7-.1.5-.2.9-.5.9h-.9s.1.2.4.2h7c.7,0,.8,0,.9-.5.1-.6.2-1.3.2-1.9-.3,0-.3-.2-.4-.2h0Z"/>
      <path class="st2" d="M208.9,5.3V1.6c0-.6-.2-.9-.7-1h-.7c-.2,0-.3,0-.3-.2s.1-.2.4-.2h4.8c1.1-.1,2.2.2,3.2.8.8.6,1.2,1.5,1.2,2.4,0,1.3-.5,2.4-2.3,3.9,1.5,1.9,2.7,3.5,3.8,4.6.5.6,1.2,1,1.9,1.2h.7s-.1.2-.3.2h-1.6c-.6,0-1.3,0-1.9-.3-1-.7-1.8-1.5-2.4-2.6-.7-1-1.5-2.1-1.7-2.4h-1.9v.2c0,1.6,0,3,.1,3.7,0,.5.2.9.7.9h.9c.3,0,.2,0,.2,0,0,0-.1.2-.4.2h-4.7c-.2,0-.4,0-.4-.2s.1,0,.3,0h.6c.3,0,.4-.5.5-.9.1-.7.1-2.1.1-3.7v-3h-.1ZM211,6.7c0,.2,0,.3.2.3.4,0,.9.2,1.3.2s.9,0,1.2-.3c.7-.7,1.1-1.6,1-2.6,0-2.4-1.6-3.2-2.7-3.2s-.6,0-.9.1c-.1,0-.2.1-.2.2v5.3h0Z"/>
      <path class="st2" d="M221.4,13.2c-.3,0-.3-.2-.3-.6,0-1,.1-2,.1-2.3s0-.5.2-.5.2.2.2.3c0,.3.1.6.2.9.3,1.1,1.3,1.8,2.4,1.8s2.2-.7,2.3-1.9h0c0-1-.3-1.8-1.7-2.9l-.8-.6c-1.9-1.5-2.6-2.7-2.6-4.1S223,0,225.4,0s1.6.1,2.3.3c.2,0,.2.1.2.2v2.1c0,.4-.1.5-.2.5s-.2-.1-.2-.3c0-.4-.2-.8-.5-1.1-.5-.6-1.2-.9-1.9-.9-1-.1-1.9.6-2.1,1.6v.2c0,.8.4,1.4,1.8,2.5l.5.4c2.1,1.6,2.8,2.8,2.8,4.4s-.6,2.4-1.6,3c-.8.5-1.8.8-2.8.7-.6,0-1.5,0-2.3-.4h0Z"/>
      <path class="st2" d="M231.8,5.3V1.6c0-.6-.2-.9-.6-1-.2-.1-.4-.1-.6-.1s-.3,0-.3-.2.1-.1.4-.1h4.4c.2,0,.4,0,.4.1s-.1.2-.3.2h-.5c-.5.1-.6.4-.6,1v6.8c0,1.7,0,3.1.1,3.8,0,.5.2.8.7.9h1.2s-.1.2-.3.2h-4.9c-.2,0-.3,0-.3-.2s.1,0,.3,0h.6c.3,0,.5-.4.5-.9.1-.7.1-2.1.1-3.8l-.3-3h0Z"/>
      <path class="st2" d="M241.3,1.2h-2.6c-1,.1-1.4.2-1.7.6-.1.2-.2.4-.3.6,0,.1-.1.2-.2.2s-.2-.1-.2-.3.3-1.9.4-2C236.7.2,236.8,0,236.9,0s.3.2.8.2c.6.1,1.2.1,1.7.1h6.9c.4,0,.8,0,1.2-.1.3,0,.4-.1.5-.1s.1.1.1.4v2c0,.2,0,.3-.2.3s-.2-.1-.2-.4v-.2c0-.5-.5-.9-2-1h-2.3c0-.1,0,7.1,0,7.1,0,1.6,0,3,.1,3.7,0,.5.2.9.7.9h1.2s-.1.2-.3.2h-4.9c-.2,0-.4,0-.4-.2s.1,0,.3,0h.6c.3,0,.5-.5.5-.9.1-.7.1-2.1.1-3.7V1.2h0Z"/>
      <path class="st2" d="M254.6,8.9c0-.6-.1-1.3-.4-1.8-.1-.3-2.4-4.1-3.1-5-.3-.5-.7-.9-1.2-1.2-.2-.1-.5-.2-.7-.2s-.3,0-.3-.2.1-.2.3-.2h4c.2,0,.3,0,.3.2s-.1.1-.4.2c-.1,0-.2.2-.2.3,0,.2.1.4.2.6.2.5,2.7,4.7,2.9,5.2.2-.4,2.4-4.2,2.6-4.8s.2-.6.2-.9-.1-.4-.4-.4-.3,0-.3-.2.1-.2.3-.2h3.5c.2,0,.3,0,.3.1,0,.1-.1.2-.3.2-.3,0-.5.1-.8.2-.4.2-.7.5-.9.9-1.2,1.8-2.3,3.6-3.3,5.5-.2.6-.3,1.1-.3,1.7v3.1c0,.5.2.9.7.9h1.2s-.1.2-.4.2h-4.9c-.2,0-.4,0-.4-.2s.1,0,.3,0h.6c.4,0,.5-.5.5-.9.1-.7.1-1.5.1-1.7l.3-1.4h0Z"/>
      <path class="st2" d="M267.6,6.9C267.5,3.2,270.4.1,274.1,0h.7c4.3,0,7,2.5,7,6.5.1,3.8-2.8,7-6.6,7.1h-.6c-3.6.2-6.8-2.6-7-6.2v-.5ZM279.4,7.2c0-3.9-2.2-6.3-5.1-6.3s-4.3,1.1-4.3,5.4,2,6.5,5.3,6.5,4.1-.6,4.1-5.6Z"/>
      <path class="st2" d="M287.2,8.4c0,1.2,0,2.4.1,3.7,0,.5.1.9.7.9h1.2s-.1.2-.4.2h-4.9c-.2,0-.4,0-.4-.2s.1,0,.3,0h.6c.4,0,.4-.5.5-.9.1-1.2.1-2.4.1-3.7V1.6c0-.6-.2-.9-.8-1h-.7c-.2,0-.3,0-.3-.1s.1-.2.4-.2h7.1c.2,0,.5,0,.7-.1.1,0,.2-.1.3-.1s.1.1.1.2-.1.3-.1.8-.1,1.2-.1,1.4,0,.2-.2.2-.2-.1-.2-.3,0-.4-.1-.7c-.3-.4-.7-.6-1.1-.5h-2.7c-.1-.1-.2,0-.2.1v4.4s0,.2.1.2h3.1c.3,0,.6,0,.7-.3.1,0,.1-.2.2-.2s.1,0,.1.2-.1.5-.1,1.1-.1,1.1-.1,1.2,0,.3-.2.3-.1,0-.1-.2,0-.4-.1-.5c-.2-.4-.5-.6-.9-.6h-2.6c0,0-.1,0-.1.2v1.3h.1Z"/>
      <path class="st3" d="M37.8,7.8c-2.3,2-13,12.8-15.4,15.3l20.4,21.9,8.3,9c2.9,2.8,6.2,5.7,9.7,7.1,1.5.7,3.1,1.2,4.8,1.4.5,0,.9,0,.9.6s-.4.7-1.7.7h-11.1c-3.9-.3-5.8-1.9-8.8-4.6l-28-30.9-.8-1.1h-.4v6.5c0,6.5,0,12.2.2,15.2,0,2,.8,3.6,2.6,3.8,1.2.2,2.3.3,3.5.3s.9.2.9.6-.6.7-1.4.7c-4,0-8.5-.2-10.2-.2s-6.1.2-9,.2-1.4-.2-1.4-.7.3-.6,1.1-.6,1.7,0,2.6-.3c1.5-.3,1.8-1.8,2.1-3.9.4-3,.4-8.6.4-15.2V6c0-2.3-.7-3.6-3.1-4.1-.9-.2-1.8-.2-2.8-.2s-1.2-.1-1.2-.6S.5.5,1.6.5c3.8,0,8.3.2,10,.2s6.2-.2,8.6-.2,1.5.1,1.5.6-.4.6-1,.6-1.3.1-2,.2c-1.9.4-2.5,1.6-2.6,4.1-.2,2.3-.2,4.3-.2,15.1v3.1h.4c2.5-2.6,12.9-13.2,14.9-15.6,2.1-2.4,3.6-4.1,3.6-5.3s-.3-1.2-1-1.4c-.7-.2-.9-.3-.9-.7s.4-.6,1.1-.6c1.5,0,5.4.2,7.3.2h13.6c1.7,0,6.2-.2,8.7-.2s1.6.1,1.6.6-.4.6-1.1.6-1.4.1-2.1.2c-1.9.4-2.4,1.6-2.6,4v24.9c0,10.3,2.1,14.6,5.5,17.5,2.5,2,5.7,3.1,8.9,2.9,3.7,0,7.2-1.3,9.8-3.8,3.9-3.9,4.1-10.3,4.1-17.6V6c0-2.3-.7-3.5-3.1-4-.8-.2-1.7-.2-2.6-.2s-1.2-.1-1.2-.6.5-.6,1.5-.6c3.7,0,8.1.2,8.2.2.9,0,5.3-.2,8.1-.2s1.5.1,1.5.6-.4.6-1.2.6-1.4.1-2.1.2c-1.9.4-2.4,1.6-2.6,4v22.6c0,7.9-.8,16.3-6.7,21.4-4.1,3.5-9.4,5.4-14.8,5.1-3.8,0-10.6-.2-15.7-4.9-3.7-3.3-6.3-8.5-6.3-18.8V6c0-2.3-.8-4-3.1-4s-5.7,2.5-9.3,5.9h-.5Z"/>
      <g id="New_Kansas_Type">
        <path class="st2" d="M214,53.7c-.8-.3-.9-.6-.9-1.6,0-2.6.2-5.5.2-6.3s.2-1.2.6-1.2.5.4.5.8c0,.8.2,1.6.4,2.4.8,3.1,3.7,5.1,6.9,4.9,4.3,0,6.4-2.9,6.4-5.5s-.7-4.6-4.7-7.7l-2.2-1.8c-5.3-4.1-7.1-7.5-7.1-11.4s4.4-9.1,11.1-9.1,4.3.2,6.4.8c.4,0,.7.2.7.6,0,.6-.2,2-.2,5.8s-.1,1.4-.5,1.4-.5-.3-.5-.9c-.1-1.2-.5-2.3-1.2-3.2-1.3-1.6-3.2-2.5-5.3-2.3-3.6,0-5.7,2.1-5.7,5s1.1,3.9,5.1,6.9l1.3,1c5.8,4.5,7.9,7.7,7.9,12.3.1,3.4-1.6,6.6-4.5,8.4-2.3,1.4-5,2.1-7.6,2-2.5,0-4.9-.3-7.1-1.3h0Z"/>
        <path class="st2" d="M245.2,41.8c-.2,0-.3,0-.4.4l-2.6,6.9c-.4.9-.6,1.9-.7,2.9,0,.9.4,1.5,1.9,1.5h.7c.6,0,.7,0,.7.4s-.3.5-.8.5h-10.8c-2.5,0-.9,0-.9-.5s.2-.4.6-.4h1.5c2.2-.3,3.1-1.9,4.1-4.3l12.1-30.2c.6-1.4.9-1.9,1.4-1.9s.7.4,1.2,1.5c1.2,2.6,8.8,22.3,11.9,29.6,1.8,4.3,3.2,5,4.2,5.2.7,0,1.3.2,2,.2s.6,0,.6.4-.4.5-2.2.5h-9.1c-.9,0-1.4,0-1.4-.4s.2-.4.7-.4.6-.6.5-1h0l-3.8-10.3c-.1-.2-.3-.3-.5-.3h-10.9v-.3ZM255.1,39.3c.2,0,.3,0,.2-.3l-4.3-11.9c0-.2-.1-.4-.2-.4s-.2.2-.3.4l-4.4,11.8c0,.2,0,.3.2.3h8.8Z"/>
        <path class="st2" d="M273.3,53.7c-.8-.3-.9-.6-.9-1.6,0-2.6.2-5.5.2-6.3s.2-1.2.6-1.2.5.4.5.8c0,.8.2,1.6.4,2.4.8,3.1,3.7,5.1,6.9,4.9,4.3,0,6.4-2.9,6.4-5.5s-.7-4.6-4.7-7.7l-2.2-1.8c-5.3-4.1-7.1-7.5-7.1-11.4s4.4-9.1,11.1-9.1,4.3.2,6.4.8c.4,0,.7.2.7.6,0,.6-.2,2-.2,5.8s-.1,1.4-.5,1.4-.5-.3-.5-.9c-.1-1.2-.5-2.3-1.2-3.2-1.3-1.6-3.2-2.5-5.3-2.3-3.6,0-5.7,2.1-5.7,5s1.1,3.9,5.1,6.9l1.3,1c5.8,4.5,7.9,7.7,7.9,12.3s-1.7,6.5-4.5,8.4c-2.3,1.4-5,2.1-7.6,2-2.5,0-4.9-.4-7.1-1.3h0Z"/>
        <path class="st2" d="M211.2,18.3h-10.3c-2.4,0-1.2,0-1.2.4s.2.4.8.4c.9,0,1.7,0,2.5.3,1.1.5,1.6,1.4,1.6,4.3l.4,21.3h-.2c-.8-.8-7.2-7.6-10.4-10.8-6.9-6.9-14.1-14.6-14.7-15.2-.8-.9-1.2-1.5-1.8-1.5s-.6.7-.6,1.6l-.4,28.1c0,1.2,0,2.4-.2,3.7-.4,1.4-1.7,2.3-3.2,2.2-1.5,0-2.8-.6-3.7-1.8h0c-.7-1-1.3-2.1-1.7-3.3-3-7.2-10.6-26.6-11.8-29.2-.5-1.1-.7-1.5-1.2-1.5s-.7.5-1.3,1.9l-11.9,29.8c-.3.9-.7,1.7-1.2,2.5-.4.7-1.1,1.1-1.8,1.2-.8,0-1.5-.4-2.1-.9-.2-.2-.5-.3-.7-.5h0c-1-.9-2.2-2-3.9-3.8-1.7-1.7-11-11.9-12.7-14.1,1.6-1.7,8.7-8.8,10.2-10.2,1.4-1.5,3.2-2.7,5.1-3.6.9-.3,1.8-.5,2.7-.5s.7,0,.7-.4-.3-.4-.8-.4h-10.4c-1,0-.8,0-.8.4s.2.4.6.5c.4,0,.7.4.7.9,0,.8-1,2-2.3,3.6s-8.3,8.8-9.9,10.6h-.2v-2.1c0-7.2,0-8.5,0-10.1,0-1.5.5-2.4,1.8-2.7h1.3c.4,0,.7,0,.7-.4s-.3-.4-1-.4h-12.4c-2.5,0-1.1,0-1.1.4s.3.4.8.4h1.8c1.6.3,2,1.1,2.1,2.7,0,1.6,0,2.9,0,10.1v8.3c0,4.4,0,8.1-.2,10.1-.2,1.4-.4,2.4-1.4,2.6-.6,0-1.1.2-1.7.2s-.8,0-.8.4.3.5.9.5h12.8c2.6,0,.9,0,.9-.5s-.2-.4-.6-.4c-.8,0-1.5,0-2.3-.2-1.2-.2-1.6-1.2-1.7-2.6,0-2,0-5.8,0-10.2v-4.3h.2l.5.7c1,1.4,10.3,12.3,12.4,14.2,2.1,1.8,3.3,2.8,5.9,3.1h13.3c.5,0,.8,0,.8-.5s-.1-.4-.7-.4h-.7c-1.5,0-1.9-.6-1.9-1.5.1-1,.3-2,.7-2.9l2.6-6.8c.1-.3.2-.4.4-.4h10.6c.2,0,.4,0,.5.3l3.8,10.1c.2.4.1.8-.3,1h-.1c-.5,0-.7,0-.7.4s.6.3,1.4.4h20.9c.7,0,1.1,0,1.1-.5s-.3-.4-.8-.4c-.8,0-1.6,0-2.4-.3-1-.3-1.6-1.6-1.7-5.3l-.5-19.9h.1c.9.9,6.1,6.8,11.3,12,4.9,4.9,11,11.1,14,13.9.5.5,1.1,1,1.6,1s.6-.4.6-1.5l.5-29.9c0-2.7.4-3.7,1.8-4,.5,0,.9-.2,1.4,0,.6,0,.9,0,.9-.4-.3,0-.8-.3-1.4-.3h0ZM158.1,39.5h-8.7q-.2,0-.2-.3l4.4-11.7c0-.2.1-.4.3-.4s.2.2.2.4l4.3,11.7c-.1,0-.1.3-.3.3Z"/>
      </g>
      <path class="st3" d="M292.9,63.8H104.2c-.4,0-.8-.2-.9-.7,0-.4.2-.8.7-.9h189c.4,0,.8.2.9.7.1.4-.2.8-.7.9-.1,0-.2,0-.3,0Z"/>
      <path class="st3" d="M108.1,71.4h2l3.7,10.3h-2.2l-.8-2.2h-3.5l-.7,2.2h-2.1l3.6-10.3ZM110.2,77.6l-1.1-3.3-1.1,3.3h2.2Z"/>
      <path class="st3" d="M114.3,77.9v-.2c-.2-2,1.3-3.8,3.3-4h.4c1,0,1.9.3,2.6,1l-1.1,1.5c-.3-.5-.9-.7-1.4-.8-.9,0-1.6.9-1.6,2.2h0c0,1.3.6,2.2,1.6,2.2s1.1-.3,1.4-.7l1.1,1.4c-.7.8-1.6,1.2-2.7,1.2-2,0-3.6-1.7-3.5-3.8,0,0,0,0-.1,0Z"/>
      <path class="st3" d="M121.7,71.1h2.1v3.8c.4-.7,1.2-1.2,2-1.2,1.5,0,2.3,1,2.3,2.6v5.3h-2.1v-4.7c0-.9-.4-1.4-1.1-1.4s-1.1.5-1.1,1.4v4.7h-2.1v-10.5h0Z"/>
      <path class="st3" d="M129.7,71.1h2.2v1.9h-2.2v-1.9ZM129.7,73.8h2.1v7.8h-2.1v-7.8Z"/>
      <path class="st3" d="M133.3,77.8h0c0-2.4,1.4-4.1,3.4-4.1s3.3,1.8,3.3,4.1v.7h-4.7c.1.9.8,1.6,1.7,1.6s1.2-.3,1.6-.8l1.1,1.2c-.7.8-1.7,1.2-2.8,1.2-2,0-3.7-1.6-3.7-3.6v-.3h0ZM138,77.1c-.1-1.1-.5-1.8-1.3-1.8s-1.2.6-1.4,1.8h2.7Z"/>
      <path class="st3" d="M140.5,73.8h2.2l1.5,5.2,1.5-5.2h2.1l-2.6,7.9h-1.9l-2.8-7.9Z"/>
      <path class="st3" d="M148,77.8h0c0-2.4,1.4-4.1,3.4-4.1s3.3,1.8,3.3,4.1v.7h-4.7c.1.9.8,1.6,1.7,1.6s1.2-.3,1.6-.8l1.1,1.2c-.7.8-1.7,1.2-2.8,1.2-2,0-3.7-1.6-3.7-3.6v-.3h0ZM152.8,77.1c-.1-1.1-.6-1.8-1.3-1.8s-1.2.6-1.4,1.8h2.7Z"/>
      <path class="st3" d="M156.1,73.8h2.1v1c.4-.7,1.2-1.2,2-1.2s1.6.4,1.9,1.1c.5-.7,1.3-1.1,2.2-1.1,1.4,0,2.3.9,2.3,2.6v5.3h-2.1v-4.7c0-.9-.4-1.4-1.1-1.4s-1.1.5-1.1,1.4v4.7h-2.1v-4.7c0-.9-.4-1.4-1.1-1.4s-1.1.5-1.1,1.4v4.7h-2.1v-7.7h.2Z"/>
      <path class="st3" d="M168,77.8h0c0-2.4,1.4-4.1,3.4-4.1s3.3,1.8,3.3,4.1v.7h-4.7c.1.9.8,1.6,1.7,1.6s1.2-.3,1.6-.8l1.1,1.2c-.7.8-1.7,1.2-2.8,1.2-2,0-3.7-1.6-3.7-3.6v-.3h0ZM172.7,77.1c-.1-1.1-.5-1.8-1.3-1.8s-1.2.6-1.4,1.8h2.7Z"/>
      <path class="st3" d="M176.1,73.8h2.1v1c.4-.7,1.2-1.2,2-1.2,1.5,0,2.3,1,2.3,2.6v5.3h-2.1v-4.7c0-.9-.4-1.4-1.1-1.4s-1.1.5-1.1,1.4v4.7h-2.1v-7.7h0Z"/>
      <path class="st3" d="M184.4,79.7v-4.1h-.7v-1.8h.8v-2h2.1v2h1.5v1.8h-1.5v3.7c0,.5.2.7.6.7s.6,0,.9-.2v1.7c-.5.3-1,.4-1.5.4-1,.2-1.9-.5-2.1-1.4-.1-.4-.1-.6-.1-.8Z"/>
      <path class="st3" d="M198.1,80.7c-.7.7-1.7,1.1-2.7,1-1.6.2-3-1-3.2-2.6v-.3h0c0-1.2.7-2.3,1.9-2.9-.5-.6-.7-1.4-.8-2.1h0c0-1.4,1.2-2.6,2.6-2.6h.2c1.3,0,2.5.9,2.6,2.2v.2h0c0,1.2-.8,2.3-1.9,2.7l1.2,1.5c.3-.5.5-1.1.8-1.6l1.6.7c-.3.8-.7,1.6-1.1,2.3l1.3,1.5-1.5,1-1-1h0ZM196.9,79.5l-1.8-2.1c-.5.3-.8.8-.9,1.4h0c0,.7.5,1.2,1.2,1.2h.1c.6,0,1.1-.2,1.4-.5h0ZM196.9,73.9h0c0-.5-.3-.9-.7-.9h-.1c-.5,0-.9.4-.9.9h0c0,.6.2,1.1.6,1.5.8-.5,1.2-.9,1.1-1.5h0Z"/>
      <path class="st3" d="M108.1,87.2h2l3.7,10.3h-2.2l-.8-2.2h-3.5l-.7,2.2h-2.1l3.6-10.3ZM110.2,93.4l-1.1-3.3-1.1,3.3h2.2Z"/>
      <path class="st3" d="M114.3,96.5l.9-1.5c.6.5,1.3.8,2.1.9.6,0,.8-.3.8-.6h0c0-.5-.6-.6-1.4-1-1.1-.5-2.1-1-2.1-2.4h0c0-1.3,1.1-2.4,2.4-2.4h.3c.9,0,1.8.3,2.6.9l-.8,1.5c-.5-.4-1.1-.6-1.8-.7-.5,0-.8.2-.8.5h0c0,.4.6.6,1.4,1,1.1.5,2.1,1.1,2.1,2.3h0c0,1.3-1.1,2.4-2.4,2.5h-.4c-1,0-2-.3-2.9-1Z"/>
      <path class="st3" d="M120.6,96.5l.9-1.5c.6.5,1.3.8,2.1.9.6,0,.8-.3.8-.6h0c0-.5-.6-.6-1.4-1-1.1-.5-2.1-1-2.1-2.4h0c0-1.3,1.1-2.4,2.4-2.4h.3c.9,0,1.8.3,2.6.9l-.8,1.5c-.5-.4-1.1-.6-1.8-.7-.5,0-.8.2-.8.5h0c0,.4.6.6,1.4,1,1.1.5,2.1,1.1,2.1,2.3h0c0,1.3-1.1,2.4-2.4,2.5h-.4c-1.1,0-2.1-.3-2.9-1Z"/>
      <path class="st3" d="M127.2,93.6h0c0-2.4,1.4-4.1,3.4-4.1s3.3,1.8,3.3,4.1v.7h-4.6c.1.9.8,1.6,1.7,1.6s1.2-.3,1.6-.8l1.1,1.2c-.7.8-1.7,1.2-2.8,1.2-2,0-3.7-1.6-3.7-3.6v-.3h0ZM132,92.9c-.1-1.1-.6-1.8-1.3-1.8s-1.2.6-1.4,1.8h2.7Z"/>
      <path class="st3" d="M134.7,96.5l.9-1.5c.6.5,1.3.8,2.1.9.6,0,.8-.3.8-.6h0c0-.5-.6-.6-1.4-1-1.1-.5-2.1-1-2.1-2.4h0c0-1.3,1.1-2.4,2.4-2.4h.3c.9,0,1.8.3,2.6.9l-.8,1.5c-.5-.4-1.1-.6-1.8-.7-.5,0-.8.2-.8.5h0c0,.4.6.6,1.4,1,1.1.5,2.1,1.1,2.1,2.3h0c0,1.3-1.1,2.4-2.4,2.5h-.4c-1,0-2-.3-2.9-1h0Z"/>
      <path class="st3" d="M141.1,96.5l.9-1.5c.6.5,1.3.8,2.1.9.6,0,.8-.3.8-.6h0c0-.5-.6-.6-1.4-1-1.1-.5-2.1-1-2.1-2.4h0c0-1.3,1.1-2.4,2.4-2.4h.3c.9,0,1.8.3,2.6.9l-.8,1.5c-.5-.4-1.1-.6-1.8-.7-.5,0-.8.2-.8.5h0c0,.4.6.6,1.4,1,1.1.5,2.1,1.1,2.1,2.3h0c0,1.3-1.1,2.4-2.4,2.5h-.4c-1,0-2.1-.3-2.9-1h0Z"/>
      <path class="st3" d="M148,89.6h2.1v1c.4-.7,1.2-1.2,2-1.2s1.6.4,1.9,1.1c.5-.7,1.3-1.1,2.2-1.1,1.4,0,2.3.9,2.3,2.6v5.3h-2.1v-4.7c0-.9-.4-1.4-1.1-1.4s-1.1.5-1.1,1.4v4.7h-1.9v-4.7c0-.9-.4-1.4-1.1-1.4s-1.1.5-1.1,1.4v4.7h-2.1v-7.7h0Z"/>
      <path class="st3" d="M159.9,93.6h0c0-2.4,1.4-4.1,3.4-4.1s3.3,1.8,3.3,4.1v.7h-4.7c.1.9.8,1.6,1.7,1.6s1.2-.3,1.6-.8l1.1,1.2c-.7.8-1.7,1.2-2.8,1.2-2,0-3.7-1.6-3.7-3.6v-.3h0ZM164.6,92.9c-.1-1.1-.6-1.8-1.3-1.8s-1.2.6-1.4,1.8h2.7Z"/>
      <path class="st3" d="M168,89.6h2.1v1c.4-.7,1.2-1.2,2-1.2,1.5,0,2.3,1,2.3,2.6v5.3h-2.1v-4.7c0-.9-.4-1.4-1.1-1.4s-1.1.5-1.1,1.4v4.7h-2.1v-7.7h0Z"/>
      <path class="st3" d="M176.3,95.5v-4.1h-.8v-1.8h.8v-2h2.1v2h1.5v1.8h-1.5v3.7c0,.5.2.7.6.7s.6,0,.9-.2v1.7c-.5.3-1,.4-1.5.4-1.2,0-2.1-.6-2.1-2.2Z"/>
      <path class="st3" d="M184.8,87.2h2.1v10.2h-2.1v-10.2Z"/>
      <path class="st3" d="M188.8,89.6h2.1v1c.4-.7,1.2-1.2,2-1.2,1.5,0,2.3,1,2.3,2.6v5.3h-2.1v-4.7c0-.9-.4-1.4-1.1-1.4s-1.1.5-1.1,1.4v4.7h-2.1v-7.7h0Z"/>
      <path class="st3" d="M196.2,96.5l.9-1.5c.6.5,1.3.8,2.1.9.6,0,.8-.3.8-.6h0c0-.5-.6-.6-1.4-1-1.1-.5-2.1-1-2.1-2.4h0c0-1.3,1.1-2.4,2.4-2.4h.3c.9,0,1.8.3,2.6.9l-.8,1.5c-.5-.4-1.1-.6-1.8-.7-.5,0-.8.2-.8.5h0c0,.4.6.6,1.4,1,1.1.5,2.1,1.1,2.1,2.3h0c0,1.3-1.1,2.4-2.4,2.5h-.3c-1.1,0-2.1-.3-3-1Z"/>
      <path class="st3" d="M203.4,95.5v-4.1h-.8v-1.8h.8v-2h2.1v2h1.5v1.8h-1.5v3.7c0,.5.2.7.6.7s.6,0,.9-.2v1.7c-.5.3-1,.4-1.5.4-1.1,0-2.1-.6-2.1-2.2Z"/>
      <path class="st3" d="M208.4,86.9h2.2v1.9h-2.2v-1.9ZM208.4,89.6h2.1v7.8h-2.1v-7.8Z"/>
      <path class="st3" d="M212.6,95.5v-4.1h-.8v-1.8h.8v-2h2.1v2h1.5v1.8h-1.5v3.7c0,.5.2.7.6.7s.6,0,.9-.2v1.7c-.5.3-1,.4-1.5.4-1.2,0-2.1-.6-2.1-2.2Z"/>
      <path class="st3" d="M217.5,94.9v-5.3h2.1v4.7c0,.9.4,1.4,1.1,1.4s1.1-.5,1.1-1.4v-4.7h2.1v7.8h-2.1v-1c-.4.7-1.2,1.2-2,1.2-1.4,0-2.3-1-2.3-2.7h0Z"/>
      <path class="st3" d="M225.9,95.5v-4.1h-.8v-1.8h.8v-2h2.1v2h1.5v1.8h-1.5v3.7c0,.5.2.7.6.7s.6,0,.9-.2v1.7c-.5.3-1,.4-1.5.4-1.2,0-2.1-.6-2.1-2.2Z"/>
      <path class="st3" d="M230.4,93.6h0c0-2.4,1.4-4.1,3.4-4.1s3.3,1.8,3.3,4.1v.7h-4.7c.1.9.8,1.6,1.7,1.6s1.2-.3,1.6-.8l1.1,1.2c-.7.8-1.7,1.2-2.8,1.2-2,0-3.7-1.6-3.7-3.6.1,0,.1-.2.1-.3h0ZM235.1,92.9c-.1-1.1-.5-1.8-1.3-1.8s-1.2.6-1.4,1.8h2.7Z"/>
    </g>
    <line class="st1" x1="349.3" y1="4.2" x2="349.3" y2="95.4"/>
    <g>
      <rect class="st0" x="383.4" y="27.5" width="341.1" height="47.6"/>
      <path d="M390.8,28.1h2.5l6.8,15.5h-2.9l-1.6-3.7h-7.3l-1.6,3.7h-2.8l6.9-15.5ZM394.7,37.5l-2.7-6.2-2.6,6.2h5.3Z"/>
      <path d="M401.2,37.8h0c0-3.3,2.6-6.1,6.1-6.1s3.5.8,4.6,2l-1.7,1.8c-.8-.8-1.7-1.5-3-1.5-1.9,0-3.4,1.7-3.4,3.7h0c0,2.1,1.4,3.7,3.5,3.7s2.2-.6,3-1.4l1.6,1.6c-1.1,1.3-2.5,2.2-4.8,2.2-3.3,0-5.9-2.7-5.9-6h0Z"/>
      <path d="M413.5,37.8h0c0-3.3,2.6-6.1,6.1-6.1s3.5.8,4.6,2l-1.7,1.8c-.8-.8-1.7-1.5-3-1.5-1.9,0-3.4,1.7-3.4,3.7h0c0,2.1,1.4,3.7,3.5,3.7s2.2-.6,3-1.4l1.6,1.6c-1.1,1.3-2.5,2.2-4.8,2.2-3.4,0-5.9-2.7-5.9-6h0Z"/>
      <path d="M425.7,37.8h0c0-3.4,2.4-6.1,5.7-6.1s5.6,2.9,5.6,6.2v.7h-8.5c.3,1.9,1.6,2.9,3.3,2.9s2.2-.5,3.1-1.4l1.6,1.4c-1.1,1.3-2.6,2.2-4.8,2.2-3.4,0-6-2.3-6-5.9h0ZM434.3,37c-.2-1.7-1.2-3.1-2.9-3.1s-2.8,1.3-3,3.1h5.9Z"/>
      <path d="M438.7,42.1l1.2-1.8c1.3.9,2.6,1.4,3.8,1.4s1.8-.5,1.8-1.3h0c0-.9-1.2-1.2-2.6-1.6-1.7-.5-3.6-1.2-3.6-3.4h0c0-2.2,1.8-3.6,4.1-3.6s3,.5,4.3,1.3l-1.1,1.9c-1.1-.7-2.3-1.1-3.3-1.1s-1.6.5-1.6,1.1h0c0,.9,1.3,1.2,2.6,1.6,1.7.5,3.6,1.3,3.6,3.4h0c0,2.4-1.9,3.7-4.3,3.7-1.7,0-3.5-.5-4.9-1.6Z"/>
      <path d="M449.5,42.1l1.2-1.8c1.3.9,2.6,1.4,3.8,1.4s1.8-.5,1.8-1.3h0c0-.9-1.2-1.2-2.6-1.6-1.7-.5-3.6-1.2-3.6-3.4h0c0-2.2,1.8-3.6,4.1-3.6s3,.5,4.3,1.3l-1.1,1.9c-1.1-.7-2.3-1.1-3.3-1.1s-1.6.5-1.6,1.1h0c0,.9,1.3,1.2,2.6,1.6,1.7.5,3.6,1.3,3.6,3.4h0c0,2.4-1.9,3.7-4.3,3.7-1.6,0-3.5-.5-4.9-1.6Z"/>
      <path d="M461.5,27.7h2.9v2.5h-2.9v-2.5ZM461.6,32h2.7v11.6h-2.7v-11.6Z"/>
      <path d="M470.4,41.8v1.8h-2.7v-16.1h2.7v6.4c.9-1.2,2.1-2.2,4-2.2,2.7,0,5.4,2.2,5.4,6h0c0,3.9-2.6,6-5.4,6s-3.2-.8-4-1.9ZM477,37.8h0c0-2.3-1.5-3.8-3.3-3.8s-3.4,1.5-3.4,3.7h0c0,2.2,1.6,3.7,3.4,3.7,1.8,0,3.3-1.3,3.3-3.6Z"/>
      <path d="M482.6,27.5h2.7v16.1h-2.7v-16.1Z"/>
      <path d="M488.1,37.8h0c0-3.4,2.4-6.1,5.7-6.1s5.6,2.9,5.6,6.2v.7h-8.5c.3,1.9,1.6,2.9,3.3,2.9s2.2-.5,3.1-1.4l1.6,1.4c-1.1,1.3-2.6,2.2-4.8,2.2-3.4,0-6-2.3-6-5.9h0ZM496.8,37c-.2-1.7-1.2-3.1-2.9-3.1s-2.8,1.3-3,3.1h5.9Z"/>
      <path d="M512.7,30.7h-4.9v-2.5h12.5v2.5h-4.9v12.9h-2.7v-12.9h0Z"/>
      <path d="M519.8,37.8h0c0-3.4,2.4-6.1,5.7-6.1s5.6,2.9,5.6,6.2v.7h-8.5c.3,1.9,1.6,2.9,3.3,2.9s2.2-.5,3.1-1.4l1.6,1.4c-1.1,1.3-2.6,2.2-4.8,2.2-3.4,0-6-2.3-6-5.9h0ZM528.4,37c-.2-1.7-1.2-3.1-2.9-3.1s-2.8,1.3-3,3.1h5.9Z"/>
      <path d="M532.9,40.2h0c0-2.6,2-3.8,4.8-3.8s2.2.2,3.1.5v-.3c0-1.6-1-2.5-2.9-2.5s-2.3.3-3.3.7l-.7-2.1c1.3-.6,2.6-.9,4.4-.9s3,.5,3.9,1.3,1.3,2.1,1.3,3.6v6.9h-2.6v-1.5c-.8.9-2,1.7-3.8,1.7s-4.2-1.2-4.2-3.6ZM540.9,39.4v-.8c-.7-.3-1.6-.5-2.6-.5-1.7,0-2.7.7-2.7,1.9h0c0,1.1,1,1.8,2.3,1.8s3-.9,3-2.4Z"/>
      <path d="M546,37.8h0c0-3.3,2.6-6.1,6.1-6.1s3.5.8,4.6,2l-1.7,1.8c-.8-.8-1.7-1.5-3-1.5-1.9,0-3.4,1.7-3.4,3.7h0c0,2.1,1.4,3.7,3.5,3.7s2.2-.6,3-1.4l1.6,1.6c-1.1,1.3-2.5,2.2-4.8,2.2-3.4,0-5.9-2.7-5.9-6h0Z"/>
      <path d="M559.1,27.5h2.7v6.2c.7-1.1,1.8-2,3.6-2,2.6,0,4.1,1.8,4.1,4.4v7.5h-2.7v-6.6c0-1.8-.9-2.8-2.5-2.8s-2.6,1.1-2.6,2.9v6.5h-2.7v-16.1h.1Z"/>
      <path d="M572.8,27.7h2.9v2.5h-2.9v-2.5ZM572.9,32h2.7v11.6h-2.7v-11.6Z"/>
      <path d="M579.1,32h2.7v1.8c.7-1.1,1.8-2,3.6-2,2.6,0,4.1,1.8,4.1,4.4v7.4h-2.7v-6.6c0-1.8-.9-2.8-2.5-2.8s-2.6,1.1-2.6,2.9v6.5h-2.7v-11.6h.1Z"/>
      <path d="M592.7,45.8l1-2c1.3.8,2.6,1.2,4.1,1.2,2.4,0,3.7-1.2,3.7-3.5v-.9c-1,1.2-2.2,2.1-4.1,2.1-2.8,0-5.3-2-5.3-5.4h0c0-3.4,2.6-5.5,5.3-5.5s3.2.9,4.1,2v-1.7h2.7v9.2c0,2-.5,3.4-1.5,4.4-1.1,1.1-2.7,1.6-4.8,1.6-1.9-.2-3.7-.6-5.2-1.5ZM601.5,37.2h0c0-1.9-1.6-3.2-3.4-3.2s-3.3,1.3-3.3,3.2h0c0,1.9,1.5,3.2,3.3,3.2s3.4-1.3,3.4-3.2Z"/>
      <path d="M606.6,45.7c1.3-.3,2-.9,1.9-2.1h-1.2v-3h2.9v2.6c0,2.4-1.2,3.5-3.4,3.7l-.2-1.2Z"/>
      <path d="M620.3,28.2h2.7v12.9h8.1v2.5h-10.8v-15.4Z"/>
      <path d="M632.8,37.8h0c0-3.4,2.4-6.1,5.7-6.1s5.6,2.9,5.6,6.2v.7h-8.5c.3,1.9,1.6,2.9,3.3,2.9s2.2-.5,3.1-1.4l1.6,1.4c-1.1,1.3-2.6,2.2-4.8,2.2-3.4,0-6-2.3-6-5.9h0ZM641.4,37c-.2-1.7-1.2-3.1-2.9-3.1s-2.8,1.3-3,3.1h5.9Z"/>
      <path d="M645.9,40.2h0c0-2.6,2-3.8,4.8-3.8s2.2.2,3.1.5v-.3c0-1.6-1-2.5-2.9-2.5s-2.3.3-3.3.7l-.7-2.1c1.3-.6,2.6-.9,4.4-.9s3,.5,3.9,1.3,1.3,2.1,1.3,3.6v6.9h-2.6v-1.5c-.8.9-2,1.7-3.8,1.7s-4.2-1.2-4.2-3.6ZM653.9,39.4v-.8c-.7-.3-1.6-.5-2.6-.5-1.7,0-2.7.7-2.7,1.9h0c0,1.1,1,1.8,2.3,1.8s3-.9,3-2.4Z"/>
      <path d="M659.6,32h2.7v2.6c.7-1.7,2.1-2.9,4.1-2.8v2.8h-.2c-2.3,0-4,1.5-4,4.6v4.4h-2.7v-11.6h.1Z"/>
      <path d="M668.7,32h2.7v1.8c.7-1.1,1.8-2,3.6-2,2.6,0,4.1,1.8,4.1,4.4v7.4h-2.7v-6.6c0-1.8-.9-2.8-2.5-2.8s-2.6,1.1-2.6,2.9v6.5h-2.7v-11.6h.1Z"/>
      <path d="M682.4,27.7h2.9v2.5h-2.9v-2.5ZM682.5,32h2.7v11.6h-2.7v-11.6Z"/>
      <path d="M688.6,32h2.7v1.8c.7-1.1,1.8-2,3.6-2,2.6,0,4.1,1.8,4.1,4.4v7.4h-2.7v-6.6c0-1.8-.9-2.8-2.5-2.8s-2.6,1.1-2.6,2.9v6.5h-2.7v-11.6h.1Z"/>
      <path d="M702.2,45.8l1-2c1.3.8,2.6,1.2,4.1,1.2,2.4,0,3.7-1.2,3.7-3.5v-.9c-1,1.2-2.2,2.1-4.1,2.1-2.8,0-5.3-2-5.3-5.4h0c0-3.4,2.6-5.5,5.3-5.5s3.2.9,4.1,2v-1.7h2.7v9.2c0,2-.5,3.4-1.5,4.4-1.1,1.1-2.7,1.6-4.8,1.6-1.9-.2-3.7-.6-5.2-1.5ZM711.1,37.2h0c0-1.9-1.6-3.2-3.4-3.2s-3.3,1.3-3.3,3.2h0c0,1.9,1.5,3.2,3.3,3.2s3.4-1.3,3.4-3.2Z"/>
      <path d="M716.1,45.7c1.3-.3,2-.9,1.9-2.1h-1.1v-3h2.9v2.6c0,2.4-1.2,3.5-3.4,3.7l-.3-1.2h0Z"/>
      <path d="M394,68.2c-1.3,1.2-2.9,2-4.7,2-2.9,0-5.1-1.7-5.1-4.4h0c0-2,1.2-3.4,3.3-4.3-.9-1.1-1.3-2.1-1.3-3.2h0c0-2.1,1.7-3.9,4.4-3.9s4.1,1.7,4.1,3.7h0c0,2-1.3,3.2-3.4,4l2.6,2.7c.6-.9,1.1-1.9,1.6-3l2,1.1c-.6,1.2-1.3,2.4-2.1,3.5l2.4,2.5-2,1.5s-1.8-2.2-1.8-2.2ZM392.4,66.6l-3.4-3.5c-1.4.6-2,1.6-2,2.6h0c0,1.3,1.1,2.2,2.6,2.2,1,0,1.9-.4,2.8-1.3ZM392.3,58.2h0c0-1.1-.7-1.8-1.7-1.8s-1.8.8-1.8,1.8h0c0,.8.3,1.3,1.2,2.3,1.5-.4,2.3-1.2,2.3-2.3Z"/>
      <path d="M412.7,54.5h2.5l6.8,15.5h-2.9l-1.6-3.7h-7.2l-1.6,3.7h-2.8l6.8-15.5h0ZM416.6,63.9l-2.7-6.2-2.6,6.2h5.3Z"/>
      <path d="M423.4,68.5l1.2-1.8c1.3.9,2.6,1.4,3.8,1.4s1.8-.5,1.8-1.3h0c0-.9-1.2-1.2-2.6-1.6-1.7-.5-3.6-1.2-3.6-3.4h0c0-2.2,1.8-3.6,4.1-3.6s3,.5,4.3,1.3l-1.1,1.9c-1.1-.7-2.3-1.1-3.3-1.1s-1.6.5-1.6,1.1h0c0,.9,1.3,1.2,2.6,1.7,1.7.5,3.6,1.3,3.6,3.4h0c0,2.4-1.9,3.7-4.3,3.7s-3.5-.6-4.9-1.7Z"/>
      <path d="M434.2,68.5l1.2-1.8c1.3.9,2.6,1.4,3.8,1.4s1.8-.5,1.8-1.3h0c0-.9-1.2-1.2-2.6-1.6-1.7-.5-3.6-1.2-3.6-3.4h0c0-2.2,1.8-3.6,4.1-3.6s3,.5,4.3,1.3l-1.1,1.9c-1.1-.7-2.3-1.1-3.3-1.1s-1.6.5-1.6,1.1h0c0,.9,1.3,1.2,2.6,1.7,1.7.5,3.6,1.3,3.6,3.4h0c0,2.4-1.9,3.7-4.3,3.7s-3.5-.6-4.9-1.7Z"/>
      <path d="M445.5,64.2h0c0-3.4,2.4-6.1,5.7-6.1s5.6,2.9,5.6,6.2v.7h-8.5c.3,1.9,1.6,2.9,3.3,2.9s2.2-.5,3.1-1.4l1.6,1.4c-1.1,1.3-2.6,2.2-4.8,2.2-3.4,0-6-2.3-6-5.9h0ZM454.1,63.4c-.2-1.7-1.2-3.1-2.9-3.1s-2.8,1.3-3,3.1h5.9Z"/>
      <path d="M458.5,68.5l1.2-1.8c1.3.9,2.6,1.4,3.8,1.4s1.8-.5,1.8-1.3h0c0-.9-1.2-1.2-2.6-1.6-1.7-.5-3.6-1.2-3.6-3.4h0c0-2.2,1.8-3.6,4.1-3.6s3,.5,4.3,1.3l-1.1,1.9c-1.1-.7-2.3-1.1-3.3-1.1s-1.6.5-1.6,1.1h0c0,.9,1.3,1.2,2.6,1.7,1.7.5,3.6,1.3,3.6,3.4h0c0,2.4-1.9,3.7-4.3,3.7s-3.5-.6-4.9-1.7Z"/>
      <path d="M469.3,68.5l1.2-1.8c1.3.9,2.6,1.4,3.8,1.4s1.8-.5,1.8-1.3h0c0-.9-1.2-1.2-2.6-1.6-1.7-.5-3.6-1.2-3.6-3.4h0c0-2.2,1.8-3.6,4.1-3.6s3,.5,4.3,1.3l-1.1,1.9c-1.1-.7-2.3-1.1-3.3-1.1s-1.6.5-1.6,1.1h0c0,.9,1.3,1.2,2.6,1.7,1.7.5,3.6,1.3,3.6,3.4h0c0,2.4-1.9,3.7-4.3,3.7s-3.5-.6-4.9-1.7Z"/>
      <path d="M481.2,58.4h2.7v1.8c.7-1,1.8-2,3.5-2s2.9.8,3.5,2c.9-1.2,2.2-2,3.9-2,2.5,0,4.1,1.6,4.1,4.4v7.4h-2.6v-6.6c0-1.8-.9-2.8-2.4-2.8s-2.5,1-2.5,2.9v6.6h-2.7v-6.6c0-1.8-.9-2.8-2.4-2.8s-2.5,1.1-2.5,2.9v6.6h-2.7v-11.8h.1Z"/>
      <path d="M501.5,64.2h0c0-3.4,2.4-6.1,5.7-6.1s5.6,2.9,5.6,6.2v.7h-8.5c.3,1.9,1.6,2.9,3.3,2.9s2.2-.5,3.1-1.4l1.6,1.4c-1.1,1.3-2.6,2.2-4.8,2.2-3.4,0-6-2.3-6-5.9h0ZM510.1,63.4c-.2-1.7-1.2-3.1-2.9-3.1s-2.8,1.3-3,3.1h5.9Z"/>
      <path d="M515.4,58.4h2.7v1.8c.7-1.1,1.8-2,3.6-2,2.6,0,4.1,1.8,4.1,4.4v7.4h-2.7v-6.6c0-1.8-.9-2.8-2.5-2.8s-2.6,1.1-2.6,2.9v6.6h-2.7v-11.7h.1Z"/>
      <path d="M529.6,66.8v-6.1h-1.5v-2.3h1.5v-3.2h2.7v3.2h3.1v2.3h-3.1v5.7c0,1,.5,1.5,1.4,1.5s1.1,0,1.7-.4v2.1c-.7.4-1.4.6-2.4.6-2,0-3.4-.9-3.4-3.4Z"/>
      <path d="M544,67.7l1.6-1.9c1.5,1.3,3,2,4.9,2s2.7-.8,2.7-1.9h0c0-1.1-.6-1.7-3.5-2.4-3.3-.8-5.1-1.8-5.1-4.6h0c0-2.6,2.2-4.5,5.3-4.5s4,.7,5.6,1.9l-1.5,2c-1.4-1-2.8-1.6-4.2-1.6s-2.5.8-2.5,1.8h0c0,1.2.7,1.7,3.7,2.4,3.3.8,4.9,2,4.9,4.5h0c0,2.9-2.3,4.6-5.5,4.6-2.3.2-4.6-.6-6.4-2.3Z"/>
      <path d="M566.5,58.4h2.8l-4.6,11.9c-.9,2.4-2,3.3-3.8,3.3s-1.9-.3-2.8-.7l.9-2c.5.3,1,.4,1.6.4s1.2-.3,1.7-1.3l-4.8-11.6h2.9l3.3,8.6,2.8-8.6h0Z"/>
      <path d="M570.2,68.5l1.2-1.8c1.3.9,2.6,1.4,3.8,1.4s1.8-.5,1.8-1.3h0c0-.9-1.2-1.2-2.6-1.6-1.7-.5-3.6-1.2-3.6-3.4h0c0-2.2,1.8-3.6,4.1-3.6s3,.5,4.3,1.3l-1.1,1.9c-1.1-.7-2.3-1.1-3.3-1.1s-1.6.5-1.6,1.1h0c0,.9,1.3,1.2,2.6,1.7,1.7.5,3.6,1.3,3.6,3.4h0c0,2.4-1.9,3.7-4.3,3.7s-3.5-.6-4.9-1.7Z"/>
      <path d="M582.5,66.8v-6.1h-1.5v-2.3h1.5v-3.2h2.7v3.2h3.1v2.3h-3.1v5.7c0,1,.5,1.5,1.4,1.5s1.1,0,1.7-.4v2.1c-.7.4-1.4.6-2.4.6-2,0-3.4-.9-3.4-3.4Z"/>
      <path d="M590,64.2h0c0-3.4,2.4-6.1,5.7-6.1s5.6,2.9,5.6,6.2v.7h-8.5c.3,1.9,1.6,2.9,3.3,2.9s2.2-.5,3.1-1.4l1.6,1.4c-1.1,1.3-2.6,2.2-4.8,2.2-3.4,0-6-2.3-6-5.9h0ZM598.6,63.4c-.2-1.7-1.2-3.1-2.9-3.1s-2.8,1.3-3,3.1h5.9Z"/>
      <path d="M603.9,58.4h2.7v1.8c.7-1,1.8-2,3.5-2s2.9.8,3.5,2c.9-1.2,2.2-2,3.9-2,2.5,0,4.1,1.6,4.1,4.4v7.4h-2.7v-6.6c0-1.8-.9-2.8-2.4-2.8s-2.5,1-2.5,2.9v6.6h-2.7v-6.6c0-1.8-.9-2.8-2.4-2.8s-2.5,1.1-2.5,2.9v6.6h-2.7v-11.8h.2Z"/>
      <path d="M623.9,68.5l1.2-1.8c1.3.9,2.6,1.4,3.8,1.4s1.8-.5,1.8-1.3h0c0-.9-1.2-1.2-2.6-1.6-1.7-.5-3.6-1.2-3.6-3.4h0c0-2.2,1.8-3.6,4.1-3.6s3,.5,4.3,1.3l-1.1,1.9c-1.1-.7-2.3-1.1-3.3-1.1s-1.6.5-1.6,1.1h0c0,.9,1.3,1.2,2.6,1.7,1.7.5,3.6,1.3,3.6,3.4h0c0,2.4-1.9,3.7-4.3,3.7s-3.5-.6-4.9-1.7Z"/>
    </g>
  </g>
</svg>