<?xml version="1.0" encoding="utf-8"?>
<!-- Generator: Adobe Illustrator 24.0.3, SVG Export Plug-In . SVG Version: 6.00 Build 0)  -->
<svg version="1.1" id="Layer_1" xmlns="http://www.w3.org/2000/svg" xmlns:xlink="http://www.w3.org/1999/xlink" x="0px" y="0px"
	 width="750px" height="152.4px" viewBox="0 0 750 152.4" style="enable-background:new 0 0 750 152.4;" xml:space="preserve">
<style type="text/css">
	.st0{fill:#88898A;}
	.st1{fill:#0051BA;}
	.st2{fill:none;stroke:#000000;stroke-miterlimit:10;}
	.st3{fill:none;}
	.st4{fill:#FFFFFF;}
</style>
<g>
	<path class="st0" d="M137.3,28.6l-2.6,0.1c-1,0-1.4,0.1-1.7,0.5c-0.1,0.2-0.2,0.4-0.3,0.6c0,0.1-0.1,0.2-0.2,0.2
		c-0.1,0-0.2-0.1-0.2-0.3s0.3-1.9,0.4-2c0-0.1,0.1-0.3,0.2-0.3c0.2,0.1,0.5,0.2,0.7,0.2c0.6,0.1,1.2,0.1,1.7,0.1h6.9
		c0.4,0,0.8,0,1.2-0.1c0.3,0,0.4-0.1,0.5-0.1s0.1,0.1,0.1,0.4s0,1.6,0,2c0,0.2,0,0.3-0.2,0.3c-0.2,0-0.2-0.1-0.2-0.4v-0.2
		c0-0.5-0.5-0.9-2.1-1l-2.3-0.1v7.2c0,1.6,0,3,0.1,3.7c0,0.5,0.1,0.9,0.7,0.9c0.3,0,0.6,0.1,0.9,0.1c0.2,0,0.3,0,0.3,0.1
		c0,0.1-0.1,0.2-0.3,0.2c-1.1,0-2.2,0-2.7,0c-0.5,0-1.5,0-2.2,0c-0.2,0-0.4,0-0.4-0.2c0-0.2,0.1-0.1,0.3-0.1c0.2,0,0.4,0,0.6-0.1
		c0.4-0.1,0.5-0.5,0.5-0.9c0.1-0.7,0.1-2.1,0.1-3.7L137.3,28.6z"/>
	<path class="st0" d="M155.9,33.2c0,0,0.1,0,0.1-0.1v-0.4c0-2.6,0-3.1,0-3.7s-0.2-0.9-0.7-1c-0.2,0-0.5,0-0.7,0
		c-0.2,0-0.3,0-0.3-0.2c0-0.2,0.1-0.2,0.4-0.2c0.9,0,2,0,2.4,0c0.4,0,1.5,0,2.2,0c0.2,0,0.4,0,0.4,0.2c0,0.2-0.1,0.2-0.3,0.2
		c-0.2,0-0.3,0-0.5,0c-0.5,0.1-0.6,0.4-0.6,1c0,0.6,0,1,0,3.7v3.1c0,1.6,0,3,0.1,3.7c0.1,0.5,0.2,0.9,0.7,0.9c0.3,0,0.6,0.1,0.9,0.1
		c0.2,0,0.3,0,0.3,0.1c0,0.1-0.1,0.2-0.4,0.2c-1.1,0-2.2,0-2.7,0c-0.5,0-1.5,0-2.2,0c-0.2,0-0.4,0-0.4-0.2c0-0.2,0.1-0.1,0.3-0.1
		c0.2,0,0.4,0,0.6-0.1c0.4-0.1,0.4-0.5,0.5-0.9c0.1-0.7,0.1-2.1,0.1-3.7v-1.5c0-0.1,0-0.1-0.1-0.1c0,0,0,0,0,0h-6.6
		c-0.1,0-0.1,0-0.1,0.1c0,0,0,0,0,0v1.5c0,1.6,0,3,0.1,3.7c0,0.5,0.2,0.9,0.7,0.9c0.3,0,0.6,0.1,0.9,0.1c0.2,0,0.3,0,0.3,0.1
		c0,0.1-0.1,0.2-0.4,0.2c-1.1,0-2.2,0-2.7,0c-0.5,0-1.5,0-2.2,0c-0.2,0-0.3,0-0.3-0.2c0-0.2,0.1-0.1,0.3-0.1c0.2,0,0.4,0,0.6-0.1
		c0.4-0.1,0.4-0.5,0.5-0.9c0.1-0.7,0.1-2.1,0.1-3.7v-3.1c0-2.6,0-3.1,0-3.7s-0.2-0.9-0.7-1c-0.2,0-0.5,0-0.7,0c-0.2,0-0.3,0-0.3-0.2
		c0-0.2,0.1-0.2,0.4-0.2c0.9,0,2,0,2.5,0s1.5,0,2.2,0c0.2,0,0.4,0,0.4,0.2c0,0.2-0.1,0.2-0.3,0.2c-0.2,0-0.3,0-0.5,0
		c-0.5,0.1-0.6,0.4-0.6,1c0,0.6,0,1,0,3.7v0.4c0,0.1,0,0.1,0.1,0.1H155.9z"/>
	<path class="st0" d="M162.7,32.7c0-2.6,0-3.1,0-3.7s-0.2-0.9-0.7-1c-0.2,0-0.5,0-0.7,0c-0.2,0-0.3,0-0.3-0.2c0-0.2,0.1-0.2,0.4-0.2
		h1.4h1.1c0.6,0,4,0,4.3,0l0.7-0.1c0.1,0,0.2-0.1,0.3-0.1c0.1,0,0.1,0.1,0.1,0.2s-0.1,0.3-0.1,1.1c0,0.2,0,0.9-0.1,1.1
		c-0.1,0.2,0,0.2-0.2,0.2s-0.2-0.1-0.2-0.2c0-0.2,0-0.4-0.1-0.6c-0.1-0.3-0.3-0.5-1.2-0.6c-0.3,0-2.1-0.1-2.4-0.1
		c-0.1,0-0.1,0-0.1,0.2v4.4c0,0.1,0,0.2,0.1,0.2c0.4,0,2.4,0,2.8,0c0.3,0,0.6-0.1,0.8-0.3c0.1-0.1,0.2-0.2,0.3-0.2
		c0.1,0,0.1,0,0.1,0.1c-0.1,0.4-0.1,0.8-0.1,1.2c0,0.4-0.1,1-0.1,1.2c0,0.2,0,0.3-0.2,0.3c-0.1,0-0.2-0.1-0.2-0.1c0,0,0,0,0,0
		c0-0.2,0-0.4-0.1-0.6c-0.1-0.4-0.3-0.6-1-0.7c-0.3,0-2.1,0-2.4,0c-0.1,0-0.1,0-0.1,0.2v1.3c0,0.6,0,2.2,0,2.7
		c0,1.2,0.3,1.5,2.1,1.5c0.6,0,1.1,0,1.6-0.2c0.5-0.2,0.7-0.6,0.8-1.3c0-0.2,0.1-0.3,0.2-0.3c0.1,0,0.1,0.1,0.1,0.3
		c0,0.6-0.1,1.3-0.2,1.9c-0.1,0.5-0.3,0.5-0.9,0.5c-1.3,0-2.3,0-3,0s-1.2,0-1.8,0h-1.1h-1.2c-0.2,0-0.4,0-0.4-0.2s0.1-0.1,0.3-0.1
		c0.2,0,0.4,0,0.6-0.1c0.3-0.1,0.4-0.5,0.5-0.9c0.1-0.7,0.1-2.1,0.1-3.7L162.7,32.7z"/>
	<path class="st0" d="M178.1,32.7c0-2.6,0-3.1,0-3.7s-0.2-0.9-0.8-1c-0.2,0-0.5,0-0.7,0c-0.2,0-0.3,0-0.3-0.2c0-0.2,0.1-0.2,0.4-0.2
		c0.9,0,2,0,2.5,0s1.5,0,2.1,0c0.3,0,0.4,0,0.4,0.2c0,0.2-0.1,0.2-0.3,0.2c-0.2,0-0.3,0-0.5,0c-0.5,0.1-0.6,0.4-0.6,1
		c0,0.6,0,1,0,3.7v2.4c0,2.5,0.5,3.6,1.4,4.3c0.6,0.5,1.4,0.7,2.2,0.7c0.9,0,1.8-0.3,2.4-0.9c1-1,1-2.5,1-4.3v-2.2
		c0-2.6,0-3.1,0-3.7s-0.2-0.9-0.8-1c-0.2,0-0.4,0-0.6,0c-0.2,0-0.3,0-0.3-0.2c0-0.2,0.1-0.2,0.4-0.2c0.9,0,2,0,2,0c0.2,0,1.3,0,2,0
		c0.2,0,0.4,0,0.4,0.2c0,0.2-0.1,0.2-0.3,0.2c-0.2,0-0.3,0-0.5,0c-0.5,0.1-0.6,0.4-0.6,1c0,0.6,0,1,0,3.7v1.9c0,1.9-0.2,4-1.7,5.2
		c-1,0.9-2.3,1.3-3.7,1.2c-1.4,0.1-2.8-0.3-3.9-1.2c-0.9-0.8-1.5-2.1-1.5-4.6L178.1,32.7z"/>
	<path class="st0" d="M193.3,38.5c0,1.4,0.3,1.8,0.6,1.9c0.3,0.1,0.6,0.1,0.9,0.1c0.2,0,0.3,0,0.3,0.1s-0.2,0.2-0.4,0.2
		c-1.1,0-1.8,0-2.2,0s-1,0-1.9,0c-0.2,0-0.4,0-0.4-0.2c0-0.2,0.1-0.1,0.3-0.1c0.3,0,0.5,0,0.8-0.1c0.5-0.1,0.5-0.6,0.5-2.2L192,28
		c0-0.4,0-0.6,0.2-0.6c0.2,0,0.4,0.2,0.6,0.5c0.3,0.3,2.8,3.1,5.4,5.5c1.2,1.2,3.5,3.7,3.8,4h0.1l-0.2-7.8c0-1.1-0.2-1.4-0.6-1.6
		c-0.3-0.1-0.6-0.1-0.9-0.1c-0.2,0-0.3,0-0.3-0.2c0-0.2,0.2-0.2,0.5-0.2c0.9,0,1.7,0,2.1,0c0.2,0,0.9,0,1.7,0c0.2,0,0.4,0,0.4,0.2
		c0,0.2-0.1,0.2-0.3,0.2c-0.2,0-0.3,0-0.5,0c-0.5,0.1-0.6,0.5-0.6,1.5l-0.2,11c0,0.4-0.1,0.5-0.2,0.5c-0.2,0-0.4-0.2-0.6-0.4
		c-1.1-1-3.3-3.3-5.1-5.1c-1.8-1.8-3.8-4.1-4.1-4.4l0,0L193.3,38.5z"/>
	<path class="st0" d="M233.5,38.2c-0.1,0-0.1,0.1-0.2,0.3c-0.1,0.7-0.3,1.1-0.8,1.3c-0.5,0.2-1.1,0.2-1.6,0.2c-1.8,0-2-0.3-2.1-1.5
		c0-0.5,0-2.1,0-2.7v-1.4c0-0.1,0-0.2,0.1-0.2c0.4,0,2.1,0,2.4,0c0.6,0.1,0.9,0.3,1,0.7c0.1,0.4,0,0.5,0.1,0.6
		c0,0.1,0.1,0.2,0.1,0.2c0,0,0,0,0,0c0.2,0,0.2-0.2,0.2-0.3s0-0.8,0.1-1.2c0-0.9,0.1-1.2,0.1-1.2s0-0.1-0.1-0.1s-0.2,0.1-0.3,0.2
		c-0.2,0.2-0.5,0.3-0.8,0.3c-0.4,0-2.4,0-2.8,0c-0.1,0-0.1,0-0.1-0.2v-4.3c0-0.1,0-0.2,0.1-0.2c0.3,0,2.2,0,2.4,0.1
		c0.9,0.1,1,0.3,1.2,0.6c0.1,0.2,0.1,0.4,0.1,0.6c0,0.2,0,0.2,0.2,0.2s0.2-0.1,0.2-0.2c0-0.1,0.1-1,0.1-1.1c0-0.4,0.1-0.8,0.1-1.1
		c0-0.1,0-0.2-0.1-0.2c-0.1,0-0.2,0-0.3,0.1l-0.7,0.1c-0.3,0-3.8,0-4.3,0h-1.1h-1.4h-0.3c-0.5,0-1.3,0-1.6,0c-0.3,0-0.9,0-1.8,0
		c-0.3,0-0.5,0-0.5,0.2c0,0.2,0.1,0.1,0.3,0.1c0.2,0,0.5,0,0.7,0.1c0.1,0,0.2,0.2,0.2,0.3c0,0.2-0.1,0.4-0.1,0.6
		c-0.4,1.1-2.7,6.7-3.4,8.7l0,0l-3.1-7.9c-0.2-0.4-0.3-0.9-0.4-1.3c0-0.1,0.1-0.3,0.2-0.4c0.2-0.1,0.4-0.1,0.7-0.1
		c0.2,0,0.3,0,0.3-0.2c0-0.2-0.2-0.2-0.4-0.2c-0.9,0-1.7,0-2.1,0s-1.6,0-2.5,0h-0.5c-0.7,0-1.7,0-2.1,0s-1.6,0-2.3,0
		c-0.3,0-0.4,0-0.4,0.1c0,0.1,0.1,0.2,0.3,0.2c0.2,0,0.4,0,0.6,0.1c0.4,0.1,0.5,0.4,0.6,1c0,0.6,0,1,0,3.7v3.1c0,1.7,0,3.1-0.1,3.8
		c0,0.5-0.2,0.8-0.5,0.9c-0.2,0-0.4,0.1-0.6,0.1c-0.2,0-0.3,0-0.3,0.1s0.1,0.2,0.4,0.2c0.7,0,1.8,0,2.2,0s1.6,0,2.7,0
		c0.2,0,0.3,0,0.3-0.2c0-0.2-0.1-0.1-0.3-0.1c-0.3,0-0.6,0-0.9-0.1c-0.5-0.1-0.6-0.4-0.7-0.9c-0.1-0.7-0.1-2.1-0.1-3.8v-3.1
		c0-2.6,0-3.1,0-3.7s0.2-0.9,0.6-1c0.2,0,0.3,0,0.5,0h0.1c0.2,0,0.5,0,0.7,0.1c0.6,0.2,0.9,0.4,1.3,1.3l4.4,10.6
		c0.3,0.8,0.4,1.1,0.7,1.1c0.2,0,0.4-0.3,0.8-1.3l2.4-5.4c0.9-2.1,1.4-3.1,2.1-4.7c0.5-1.1,0.7-1.4,1-1.6c0.3-0.2,0.6-0.2,0.9-0.2
		h0.2c0.2,0,0.5,0,0.7,0c0.6,0.1,0.7,0.4,0.7,1c0,0.6,0,1,0,3.7v3.1c0,1.6,0,3-0.1,3.7c-0.1,0.5-0.2,0.9-0.5,0.9
		c-0.2,0-0.4,0.1-0.6,0.1c-0.2,0-0.3,0-0.3,0.1s0.1,0.2,0.4,0.2h1.2h1c0.5,0,1.1,0,1.8,0s1.7,0,3,0c0.7,0,0.8,0,0.9-0.5
		c0.1-0.6,0.2-1.3,0.2-1.9C233.6,38.4,233.6,38.2,233.5,38.2z"/>
	<path class="st0" d="M236.6,32.7c0-2.6,0-3.1,0-3.7s-0.2-0.9-0.7-1c-0.2,0-0.5,0-0.7,0c-0.2,0-0.3,0-0.3-0.2c0-0.2,0.1-0.2,0.4-0.2
		c0.9,0,2,0,2.4,0c0.6,0,1.9,0,2.4,0c1.1-0.1,2.2,0.2,3.2,0.8c0.8,0.6,1.2,1.5,1.2,2.4c0,1.3-0.5,2.4-2.3,3.9
		c1.5,1.9,2.7,3.5,3.8,4.6c0.5,0.6,1.2,1,1.9,1.2c0.2,0,0.3,0,0.5,0c0.1,0,0.2,0,0.2,0.1s-0.1,0.2-0.3,0.2h-1.6
		c-0.6,0.1-1.3-0.1-1.9-0.3c-1-0.7-1.8-1.5-2.4-2.6c-0.7-1-1.5-2.1-1.7-2.4c-0.1-0.1-0.2-0.1-0.3-0.1h-1.5c-0.1,0-0.1,0-0.1,0.1
		c0,0,0,0,0,0v0.2c0,1.6,0,3,0.1,3.7c0,0.5,0.2,0.9,0.7,0.9c0.3,0,0.6,0.1,0.9,0.1c0.1,0,0.2,0,0.2,0.1c0,0.1-0.1,0.2-0.4,0.2
		c-1,0-2.3,0-2.6,0c-0.3,0-1.4,0-2.1,0c-0.2,0-0.4,0-0.4-0.2c0-0.2,0.1-0.1,0.3-0.1c0.2,0,0.4,0,0.6-0.1c0.3-0.1,0.4-0.5,0.5-0.9
		c0.1-0.7,0.1-2.1,0.1-3.7L236.6,32.7z M238.7,34.1c0,0.2,0,0.3,0.2,0.3c0.4,0.1,0.9,0.2,1.3,0.2c0.4,0.1,0.9-0.1,1.2-0.3
		c0.7-0.7,1.1-1.6,1-2.6c0-2.4-1.6-3.2-2.7-3.2c-0.3,0-0.6,0-0.9,0.1c-0.1,0-0.2,0.1-0.2,0.2L238.7,34.1z"/>
	<path class="st0" d="M249.1,40.6c-0.3-0.1-0.3-0.2-0.3-0.6c0-1,0.1-2,0.1-2.3c0-0.3,0-0.5,0.2-0.5c0.2,0,0.2,0.2,0.2,0.3
		c0,0.3,0.1,0.6,0.2,0.9c0.3,1.1,1.3,1.8,2.4,1.8c1.2,0.1,2.2-0.7,2.3-1.9c0,0,0-0.1,0-0.1c0-0.9-0.3-1.7-1.7-2.8l-0.8-0.6
		c-1.9-1.5-2.6-2.7-2.6-4.1c0-1.9,1.6-3.3,4-3.3c0.8,0,1.6,0.1,2.3,0.3c0.2,0,0.2,0.1,0.2,0.2c0,0.1,0,0.7,0,2.1
		c0,0.4-0.1,0.5-0.2,0.5s-0.2-0.1-0.2-0.3c0-0.4-0.2-0.8-0.5-1.1c-0.5-0.6-1.2-0.9-1.9-0.9c-1-0.1-1.9,0.6-2.1,1.6
		c0,0.1,0,0.1,0,0.2c0,0.8,0.4,1.4,1.8,2.5l0.5,0.4c2.1,1.6,2.8,2.8,2.8,4.4c0,1.2-0.6,2.4-1.6,3c-0.8,0.5-1.8,0.8-2.8,0.7
		C250.8,41.1,249.9,41,249.1,40.6z"/>
	<path class="st0" d="M259.5,32.7c0-2.6,0-3.1,0-3.7s-0.2-0.9-0.6-1c-0.2-0.1-0.4-0.1-0.6-0.1c-0.2,0-0.3,0-0.3-0.2
		c0-0.2,0.1-0.1,0.4-0.1c0.7,0,1.8,0,2.3,0c0.5,0,1.4,0,2.1,0c0.2,0,0.4,0,0.4,0.1c0,0.1-0.1,0.2-0.3,0.2c-0.2,0-0.3,0-0.5,0
		c-0.5,0.1-0.6,0.4-0.6,1c0,0.6,0,1,0,3.7v3.1c0,1.7,0,3.1,0.1,3.8c0,0.5,0.2,0.8,0.7,0.9c0.3,0,0.6,0.1,0.9,0.1
		c0.2,0,0.3,0,0.3,0.1s-0.1,0.2-0.3,0.2c-1.2,0-2.3,0-2.7,0s-1.5,0-2.2,0c-0.2,0-0.3,0-0.3-0.2c0-0.2,0.1-0.1,0.3-0.1
		c0.2,0,0.4,0,0.6-0.1c0.3-0.1,0.5-0.4,0.5-0.9c0.1-0.7,0.1-2.1,0.1-3.8L259.5,32.7z"/>
	<path class="st0" d="M269,28.6l-2.6,0.1c-1,0-1.4,0.1-1.7,0.5c-0.1,0.2-0.2,0.4-0.3,0.6c0,0.1-0.1,0.2-0.2,0.2
		c-0.1,0-0.2-0.1-0.2-0.3s0.3-1.9,0.4-2c0-0.1,0.1-0.3,0.2-0.3s0.3,0.2,0.8,0.2c0.6,0.1,1.2,0.1,1.7,0.1h6.9c0.4,0,0.8,0,1.2-0.1
		c0.3,0,0.4-0.1,0.5-0.1c0.1,0,0.1,0.1,0.1,0.4s0,1.6,0,2c0,0.2,0,0.3-0.2,0.3s-0.2-0.1-0.2-0.4v-0.2c0-0.5-0.5-0.9-2-1l-2.3-0.1
		v7.2c0,1.6,0,3,0.1,3.7c0,0.5,0.2,0.9,0.7,0.9c0.3,0,0.6,0.1,0.9,0.1c0.2,0,0.3,0,0.3,0.1c0,0.1-0.1,0.2-0.3,0.2
		c-1.1,0-2.2,0-2.7,0c-0.5,0-1.5,0-2.2,0c-0.2,0-0.4,0-0.4-0.2c0-0.2,0.1-0.1,0.3-0.1c0.2,0,0.4,0,0.6-0.1c0.3-0.1,0.5-0.5,0.5-0.9
		c0.1-0.7,0.1-2.1,0.1-3.7V28.6z"/>
	<path class="st0" d="M282.3,36.3c0-0.6-0.1-1.3-0.4-1.8c-0.1-0.3-2.4-4.1-3.1-5c-0.3-0.5-0.7-0.9-1.2-1.2c-0.2-0.1-0.5-0.2-0.7-0.2
		c-0.1,0-0.3,0-0.3-0.2c0-0.2,0.1-0.2,0.3-0.2s1.6,0,2.2,0c0.4,0,1.1,0,1.8,0c0.2,0,0.3,0,0.3,0.2c0,0.2-0.1,0.1-0.4,0.2
		c-0.1,0-0.2,0.2-0.2,0.3c0,0.2,0.1,0.4,0.2,0.6c0.2,0.5,2.7,4.7,2.9,5.2c0.2-0.4,2.4-4.2,2.6-4.8c0.1-0.3,0.2-0.6,0.2-0.9
		c0-0.2-0.1-0.4-0.4-0.4c-0.1,0-0.3,0-0.3-0.2c0-0.2,0.1-0.2,0.3-0.2c0.6,0,1.1,0,1.6,0s1.5,0,1.9,0c0.3,0,0.3,0,0.3,0.1
		c0,0.1-0.1,0.2-0.3,0.2c-0.3,0-0.5,0.1-0.8,0.2c-0.4,0.2-0.7,0.5-0.9,0.9c-1.2,1.8-2.3,3.6-3.3,5.5c-0.2,0.6-0.3,1.1-0.3,1.7v1.4
		c0,0.3,0,1,0,1.7c0,0.5,0.2,0.9,0.7,0.9c0.3,0,0.6,0.1,0.9,0.1c0.2,0,0.3,0,0.3,0.1s-0.1,0.2-0.4,0.2c-1.1,0-2.2,0-2.7,0
		c-0.5,0-1.5,0-2.2,0c-0.2,0-0.4,0-0.4-0.2c0-0.2,0.1-0.1,0.3-0.1c0.2,0,0.4,0,0.6-0.1c0.4-0.1,0.5-0.5,0.5-0.9
		c0.1-0.7,0.1-1.5,0.1-1.7L282.3,36.3z"/>
	<path class="st0" d="M295.3,34.3c-0.1-3.7,2.8-6.8,6.5-6.9c0.2,0,0.4,0,0.7,0c4.3,0,7,2.5,7,6.5c0.1,3.8-2.8,7-6.6,7.1
		c-0.2,0-0.4,0-0.6,0c-3.6,0.2-6.8-2.6-7-6.2C295.3,34.6,295.3,34.5,295.3,34.3z M307.1,34.6c0-3.9-2.2-6.3-5.1-6.3
		c-2,0-4.3,1.1-4.3,5.4c0,3.7,2,6.5,5.3,6.5C304.3,40.2,307.1,39.6,307.1,34.6z"/>
	<path class="st0" d="M314.9,35.8c0,1.2,0,2.4,0.1,3.7c0,0.5,0.1,0.9,0.7,0.9c0.3,0,0.6,0.1,0.9,0.1c0.2,0,0.3,0,0.3,0.1
		s-0.1,0.2-0.4,0.2c-1.1,0-2.2,0-2.7,0s-1.5,0-2.2,0c-0.2,0-0.4,0-0.4-0.2c0-0.2,0.1-0.1,0.3-0.1c0.2,0,0.4,0,0.6-0.1
		c0.4-0.1,0.4-0.5,0.5-0.9c0.1-1.2,0.1-2.4,0.1-3.7v-3.1c0-2.6,0-3.1,0-3.7s-0.2-0.9-0.8-1c-0.2,0-0.4,0-0.7,0c-0.2,0-0.3,0-0.3-0.1
		c0-0.1,0.1-0.2,0.4-0.2h1.4h1.1c0.7,0,4.2,0,4.6,0c0.2,0,0.5,0,0.7-0.1c0.1,0,0.2-0.1,0.3-0.1s0.1,0.1,0.1,0.2s-0.1,0.3-0.1,0.8
		c0,0.2-0.1,1.2-0.1,1.4c0,0.2,0,0.2-0.2,0.2s-0.2-0.1-0.2-0.3c0-0.2,0-0.4-0.1-0.7c-0.3-0.4-0.7-0.6-1.1-0.5l-2.7-0.1
		c-0.1,0-0.2,0.1-0.2,0.2v4.4c0,0.1,0,0.2,0.1,0.2h2.3c0.3,0,0.5,0,0.8,0c0.3,0,0.6-0.1,0.7-0.3c0.1-0.1,0.1-0.2,0.2-0.2
		c0.1,0,0.1,0,0.1,0.2c0,0.2-0.1,0.5-0.1,1.1c0,0.3-0.1,1.1-0.1,1.2s0,0.3-0.2,0.3c-0.2,0-0.1-0.1-0.1-0.2c0-0.2,0-0.4-0.1-0.5
		c-0.2-0.4-0.5-0.6-0.9-0.6c-0.4,0-2.3,0-2.6,0c-0.1,0-0.1,0-0.1,0.2L314.9,35.8z"/>
	<path class="st1" d="M65.5,35.2C63.2,37.2,52.5,48,50.1,50.5l20.4,21.9l8.3,9c2.9,2.8,6.2,5.7,9.7,7.1c1.5,0.7,3.1,1.2,4.8,1.4
		c0.5,0,0.9,0.1,0.9,0.6s-0.4,0.7-1.7,0.7h-6.2c-2.1,0-3.4,0-4.9-0.1c-3.9-0.3-5.8-1.9-8.8-4.6l-28-30.9l-0.8-1.1h-0.4v6.5
		c0,6.5,0,12.2,0.2,15.2c0.1,2,0.8,3.6,2.6,3.8c1.2,0.2,2.3,0.3,3.5,0.3c0.6,0,0.9,0.2,0.9,0.6c0,0.4-0.6,0.7-1.4,0.7
		c-4,0-8.5-0.2-10.2-0.2c-1.7,0-6.1,0.2-9,0.2c-0.9,0-1.4-0.2-1.4-0.7c0-0.5,0.3-0.6,1.1-0.6c0.9,0,1.7-0.1,2.6-0.3
		c1.5-0.3,1.8-1.8,2.1-3.9c0.4-3,0.4-8.6,0.4-15.2V48.4c0-10.8,0-12.8-0.1-15.1s-0.7-3.6-3.1-4.1c-0.9-0.2-1.8-0.2-2.8-0.2
		c-0.8,0-1.2-0.1-1.2-0.6s0.5-0.6,1.6-0.6c3.8,0,8.3,0.2,10,0.2s6.2-0.2,8.6-0.2c1,0,1.5,0.1,1.5,0.6c0,0.5-0.4,0.6-1,0.6
		c-0.7,0-1.3,0.1-2,0.2c-1.9,0.4-2.5,1.6-2.6,4.1c-0.2,2.3-0.2,4.3-0.2,15.1v3.1h0.4c2.5-2.6,12.9-13.2,14.9-15.6
		c2.1-2.4,3.6-4.1,3.6-5.3c0-0.8-0.3-1.2-1-1.4c-0.7-0.2-0.9-0.3-0.9-0.7s0.4-0.6,1.1-0.6c1.5,0,5.4,0.2,7.3,0.2h13.6
		c1.7,0,6.2-0.2,8.7-0.2c1.1,0,1.6,0.1,1.6,0.6s-0.4,0.6-1.1,0.6c-0.7,0-1.4,0.1-2.1,0.2c-1.9,0.4-2.4,1.6-2.6,4
		c-0.1,2.3-0.1,4.3-0.1,15v9.9c0,10.3,2.1,14.6,5.5,17.5c2.5,2,5.7,3.1,8.9,2.9c3.7,0.1,7.2-1.3,9.8-3.8c3.9-3.9,4.1-10.3,4.1-17.6
		v-8.9c0-10.8,0-12.8-0.1-15c-0.1-2.3-0.7-3.5-3.1-4c-0.8-0.2-1.7-0.2-2.6-0.2c-0.8,0-1.2-0.1-1.2-0.6s0.5-0.6,1.5-0.6
		c3.7,0,8.1,0.2,8.2,0.2c0.9,0,5.3-0.2,8.1-0.2c1,0,1.5,0.1,1.5,0.6c0,0.5-0.4,0.6-1.2,0.6c-0.7,0-1.4,0.1-2.1,0.2
		c-1.9,0.4-2.4,1.6-2.6,4c-0.1,2.3-0.1,4.3-0.1,15v7.6c0,7.9-0.8,16.3-6.7,21.4c-4.1,3.5-9.4,5.4-14.8,5.1c-3.8,0-10.6-0.2-15.7-4.9
		c-3.7-3.3-6.3-8.5-6.3-18.8V48.3c0-10.8,0-12.8-0.1-15c-0.1-2.3-0.8-4-3.1-4S69.1,31.8,65.5,35.2z"/>
	<g id="New_Kansas_Type_1_">
		<path class="st0" d="M241.7,81.1c-0.8-0.3-0.9-0.6-0.9-1.6c0-2.6,0.2-5.5,0.2-6.3s0.2-1.2,0.6-1.2s0.5,0.4,0.5,0.8
			c0,0.8,0.2,1.6,0.4,2.4c0.8,3.1,3.7,5.1,6.9,4.9c4.3,0,6.4-2.9,6.4-5.5c0-2.3-0.7-4.6-4.7-7.7l-2.2-1.8c-5.3-4.1-7.1-7.5-7.1-11.4
			c0-5.3,4.4-9.1,11.1-9.1c2.2,0,4.3,0.2,6.4,0.8c0.4,0.1,0.7,0.2,0.7,0.6c0,0.6-0.2,2-0.2,5.8c0,1-0.1,1.4-0.5,1.4
			c-0.4,0-0.5-0.3-0.5-0.9c-0.1-1.2-0.5-2.3-1.2-3.2c-1.3-1.6-3.2-2.5-5.3-2.3c-3.6,0-5.7,2.1-5.7,5c0,2.2,1.1,3.9,5.1,6.9l1.3,1
			c5.8,4.5,7.9,7.7,7.9,12.3c0.1,3.4-1.6,6.6-4.5,8.4c-2.3,1.4-5,2.1-7.6,2C246.3,82.5,243.9,82.1,241.7,81.1z"/>
		<path class="st0" d="M272.9,69.2c-0.2,0-0.3,0.1-0.4,0.4l-2.6,6.9c-0.4,0.9-0.6,1.9-0.7,2.9c0,0.9,0.4,1.5,1.9,1.5h0.7
			c0.6,0,0.7,0.1,0.7,0.4s-0.3,0.5-0.8,0.5c-1.5,0-3.7-0.1-5.1-0.1c-0.5,0-3.2,0.1-5.7,0.1c-0.6,0-0.9-0.1-0.9-0.5
			c0-0.4,0.2-0.4,0.6-0.4c0.5,0,1,0,1.5-0.1c2.2-0.3,3.1-1.9,4.1-4.3l12.1-30.2c0.6-1.4,0.9-1.9,1.4-1.9s0.7,0.4,1.2,1.5
			c1.2,2.6,8.8,22.3,11.9,29.6c1.8,4.3,3.2,5,4.2,5.2c0.7,0.1,1.3,0.2,2,0.2c0.4,0,0.6,0,0.6,0.4c0,0.4-0.4,0.5-2.2,0.5
			s-5.2,0-9.1-0.1c-0.9,0-1.4,0-1.4-0.4c0-0.4,0.2-0.4,0.7-0.4c0.4-0.1,0.6-0.6,0.5-1c0,0,0,0,0-0.1l-3.8-10.2
			c-0.1-0.2-0.3-0.3-0.5-0.3L272.9,69.2z M282.8,66.7c0.2,0,0.3-0.1,0.2-0.3l-4.3-11.9c0-0.2-0.1-0.4-0.2-0.4
			c-0.1,0-0.2,0.2-0.3,0.4l-4.4,11.8c0,0.2,0,0.3,0.2,0.3H282.8z"/>
		<path class="st0" d="M301,81.1c-0.8-0.3-0.9-0.6-0.9-1.6c0-2.6,0.2-5.5,0.2-6.3s0.2-1.2,0.6-1.2c0.4,0,0.5,0.4,0.5,0.8
			c0,0.8,0.2,1.6,0.4,2.4c0.8,3.1,3.7,5.1,6.9,4.9c4.3,0,6.4-2.9,6.4-5.5c0-2.3-0.7-4.6-4.7-7.7l-2.2-1.8c-5.3-4.1-7.1-7.5-7.1-11.4
			c0-5.3,4.4-9.1,11.1-9.1c2.2,0,4.3,0.2,6.4,0.8c0.4,0.1,0.7,0.2,0.7,0.6c0,0.6-0.2,2-0.2,5.8c0,1-0.1,1.4-0.5,1.4
			c-0.4,0-0.5-0.3-0.5-0.9c-0.1-1.2-0.5-2.3-1.2-3.2c-1.3-1.6-3.2-2.5-5.3-2.3c-3.6,0-5.7,2.1-5.7,5c0,2.2,1.1,3.9,5.1,6.9l1.3,1
			c5.8,4.5,7.9,7.7,7.9,12.3c0,3.4-1.7,6.5-4.5,8.4c-2.3,1.4-5,2.1-7.6,2C305.6,82.5,303.2,82,301,81.1z"/>
		<path class="st0" d="M238.9,45.7c-2.3,0-4.1,0.1-4.6,0.1c-1,0-3.3-0.1-5.7-0.1c-0.7,0-1.2,0-1.2,0.4c0,0.4,0.2,0.4,0.8,0.4
			c0.9,0,1.7,0.1,2.5,0.3c1.1,0.5,1.6,1.4,1.6,4.3l0.4,21.3h-0.2c-0.8-0.8-7.2-7.6-10.4-10.8c-6.9-6.9-14.1-14.6-14.7-15.2
			c-0.8-0.9-1.2-1.5-1.8-1.5c-0.5,0-0.6,0.7-0.6,1.6l-0.4,28.1c0,1.2,0,2.4-0.2,3.7c-0.4,1.4-1.7,2.3-3.2,2.2
			c-1.5,0-2.8-0.6-3.7-1.8l0,0c-0.7-1-1.3-2.1-1.7-3.3c-3-7.2-10.6-26.6-11.8-29.2c-0.5-1.1-0.7-1.5-1.2-1.5c-0.5,0-0.7,0.5-1.3,1.9
			l-11.9,29.8c-0.3,0.9-0.7,1.7-1.2,2.5c-0.4,0.7-1.1,1.1-1.8,1.2c-0.8-0.1-1.5-0.4-2.1-0.9c-0.2-0.2-0.5-0.3-0.7-0.5v-0.1l0,0
			c-1-0.8-2.2-1.9-3.9-3.7c-1.7-1.7-11-11.9-12.7-14.1c1.6-1.7,8.7-8.8,10.2-10.2c1.4-1.5,3.2-2.7,5.1-3.6c0.9-0.3,1.8-0.5,2.7-0.5
			c0.5,0,0.7-0.1,0.7-0.4c0-0.3-0.3-0.4-0.8-0.4c-1.5,0-4.1,0.1-5.5,0.1s-3.9-0.1-4.9-0.1c-0.5,0-0.8,0.1-0.8,0.4
			c0,0.3,0.2,0.4,0.6,0.5c0.4,0.1,0.7,0.4,0.7,0.9c0,0.8-1,2-2.3,3.6c-1.3,1.6-8.3,8.8-9.9,10.6h-0.2v-2.1c0-7.2,0-8.5,0.1-10.1
			c0.1-1.5,0.5-2.4,1.8-2.7c0.4-0.1,0.9-0.1,1.3-0.1c0.4,0,0.7-0.1,0.7-0.4c0-0.3-0.3-0.4-1-0.4c-1.6,0-4.6,0.1-5.8,0.1
			c-1.2,0-4.1-0.1-6.6-0.1c-0.7,0-1.1,0.1-1.1,0.4s0.3,0.4,0.8,0.4c0.6,0,1.2,0,1.8,0.1c1.6,0.3,2,1.1,2.1,2.7
			c0.1,1.6,0.1,2.9,0.1,10.1v8.3c0,4.4,0,8.1-0.2,10.1c-0.2,1.4-0.4,2.4-1.4,2.6c-0.6,0.1-1.1,0.2-1.7,0.2c-0.6,0-0.8,0.1-0.8,0.4
			c0,0.2,0.3,0.5,0.9,0.5c1.9,0,4.9-0.1,6-0.1c1.1,0,4.2,0.1,6.8,0.1c0.5,0,0.9-0.1,0.9-0.5c0-0.3-0.2-0.4-0.6-0.4
			c-0.8,0-1.5-0.1-2.3-0.2c-1.2-0.2-1.6-1.2-1.7-2.6c-0.1-2-0.1-5.8-0.1-10.2v-4.3h0.2l0.5,0.7c1,1.4,10.3,12.3,12.4,14.2
			c2.1,1.8,3.3,2.8,5.9,3.1c0.9,0.1,1.7,0.1,2.6,0.1h10.7c0.5,0,0.8-0.1,0.8-0.5s-0.1-0.4-0.7-0.4h-0.7c-1.5,0-1.9-0.6-1.9-1.5
			c0.1-1,0.3-2,0.7-2.9l2.6-6.8c0.1-0.3,0.2-0.4,0.4-0.4h10.6c0.2,0,0.4,0.1,0.5,0.3l3.8,10.1c0.2,0.4,0.1,0.8-0.3,1
			c0,0-0.1,0-0.1,0c-0.5,0-0.7,0.1-0.7,0.4c0,0.3,0.6,0.3,1.4,0.4c3.8,0.1,7.3,0.1,9,0.1h11.9c0.7,0,1.1-0.1,1.1-0.5
			s-0.3-0.4-0.8-0.4c-0.8,0-1.6-0.1-2.4-0.3c-1-0.3-1.6-1.6-1.7-5.3l-0.5-19.9h0.1c0.9,0.9,6.1,6.8,11.3,12c4.9,4.9,11,11.1,14,13.9
			c0.5,0.5,1.1,1,1.6,1s0.6-0.4,0.6-1.5l0.5-29.9c0-2.7,0.4-3.7,1.8-4c0.5-0.1,0.9-0.2,1.4-0.1c0.6,0,0.9-0.1,0.9-0.4
			C240,45.9,239.5,45.7,238.9,45.7z M185.8,66.9h-8.7c-0.2,0-0.2-0.1-0.2-0.3l4.4-11.7c0-0.2,0.1-0.4,0.3-0.4s0.2,0.2,0.2,0.4
			l4.3,11.7C186,66.7,186,66.9,185.8,66.9z"/>
	</g>
	<path class="st1" d="M320.6,91.2H131.9c-0.4,0.1-0.8-0.2-0.9-0.7c-0.1-0.4,0.2-0.8,0.7-0.9c0.1,0,0.1,0,0.2,0h188.8
		c0.4-0.1,0.8,0.2,0.9,0.7c0.1,0.4-0.2,0.8-0.7,0.9C320.7,91.3,320.7,91.3,320.6,91.2z"/>
	<path class="st1" d="M135.8,98.8h2l3.7,10.3h-2.2l-0.8-2.2H135l-0.7,2.2h-2.1L135.8,98.8z M137.9,105l-1.1-3.3l-1.1,3.3L137.9,105z
		"/>
	<path class="st1" d="M142,105.3v-0.2c-0.2-2,1.3-3.8,3.3-4c0.1,0,0.2,0,0.4,0c1,0,1.9,0.3,2.6,1l-1.1,1.5c-0.3-0.5-0.9-0.7-1.4-0.8
		c-0.9,0-1.6,0.9-1.6,2.2l0,0c0,1.3,0.6,2.2,1.6,2.2c0.6,0,1.1-0.3,1.4-0.7l1.1,1.4c-0.7,0.8-1.6,1.2-2.7,1.2
		c-2-0.1-3.6-1.7-3.5-3.8C142,105.4,142,105.3,142,105.3z"/>
	<path class="st1" d="M149.4,98.5h2.1v3.8c0.4-0.7,1.2-1.2,2-1.2c1.5,0,2.3,1,2.3,2.6v5.3h-2.1v-4.7c0-0.9-0.4-1.4-1.1-1.4
		c-0.7,0-1.1,0.5-1.1,1.4v4.7h-2.1V98.5z"/>
	<path class="st1" d="M157.4,98.5h2.2v1.9h-2.2V98.5z M157.4,101.2h2.1v7.8h-2.1V101.2z"/>
	<path class="st1" d="M161,105.2v-0.1c0-2.3,1.4-4,3.4-4c2.2,0,3.3,1.8,3.3,4.1c0,0.1,0,0.4,0,0.7H163c0.1,0.9,0.8,1.6,1.7,1.6
		c0.6,0,1.2-0.3,1.6-0.8l1.1,1.2c-0.7,0.8-1.7,1.2-2.8,1.2c-2,0-3.7-1.6-3.7-3.6C160.9,105.4,160.9,105.3,161,105.2z M165.7,104.5
		c-0.1-1.1-0.5-1.8-1.3-1.8c-0.8,0-1.2,0.6-1.4,1.8H165.7z"/>
	<path class="st1" d="M168.2,101.2h2.2l1.5,5.2l1.5-5.2h2.1l-2.6,7.9h-1.9L168.2,101.2z"/>
	<path class="st1" d="M175.7,105.2v-0.1c0-2.3,1.4-4,3.4-4c2.2,0,3.3,1.8,3.3,4.1c0,0.1,0,0.4,0,0.7h-4.7c0.1,0.9,0.8,1.6,1.7,1.6
		c0.6,0,1.2-0.3,1.6-0.8l1.1,1.2c-0.7,0.8-1.7,1.2-2.8,1.2c-2,0-3.7-1.6-3.7-3.6C175.7,105.4,175.7,105.3,175.7,105.2z M180.5,104.5
		c-0.1-1.1-0.6-1.8-1.3-1.8c-0.8,0-1.2,0.6-1.4,1.8H180.5z"/>
	<path class="st1" d="M183.8,101.2h2.1v1c0.4-0.7,1.2-1.2,2-1.2c0.8,0,1.6,0.4,1.9,1.1c0.5-0.7,1.3-1.1,2.2-1.1
		c1.4,0,2.3,0.9,2.3,2.6v5.3h-2.1v-4.7c0-0.9-0.4-1.4-1.1-1.4s-1.1,0.5-1.1,1.4v4.7h-2.1v-4.7c0-0.9-0.4-1.4-1.1-1.4
		s-1.1,0.5-1.1,1.4v4.7h-2.1V101.2z"/>
	<path class="st1" d="M195.7,105.2v-0.1c0-2.3,1.4-4,3.4-4c2.2,0,3.3,1.8,3.3,4.1c0,0.1,0,0.4,0,0.7h-4.7c0.1,0.9,0.8,1.6,1.7,1.6
		c0.6,0,1.2-0.3,1.6-0.8l1.1,1.2c-0.7,0.8-1.7,1.2-2.8,1.2c-2,0-3.7-1.6-3.7-3.6C195.7,105.4,195.7,105.3,195.7,105.2z M200.4,104.5
		c-0.1-1.1-0.5-1.8-1.3-1.8c-0.8,0-1.2,0.6-1.4,1.8H200.4z"/>
	<path class="st1" d="M203.8,101.2h2.1v1c0.4-0.7,1.2-1.2,2-1.2c1.5,0,2.3,1,2.3,2.6v5.3h-2.1v-4.7c0-0.9-0.4-1.4-1.1-1.4
		c-0.7,0-1.1,0.5-1.1,1.4v4.7h-2.1V101.2z"/>
	<path class="st1" d="M212.1,107.1V103h-0.7v-1.8h0.8v-2h2.1v2h1.5v1.8h-1.5v3.7c0,0.5,0.2,0.7,0.6,0.7c0.3,0,0.6-0.1,0.9-0.2v1.7
		c-0.5,0.3-1,0.4-1.5,0.4c-1,0.2-1.9-0.5-2.1-1.4C212.1,107.5,212.1,107.3,212.1,107.1z"/>
	<path class="st1" d="M225.8,108.1c-0.7,0.7-1.7,1.1-2.7,1c-1.6,0.2-3-1-3.2-2.6c0-0.1,0-0.2,0-0.3l0,0c0-1.2,0.7-2.3,1.9-2.9
		c-0.5-0.6-0.7-1.4-0.8-2.1l0,0c0-1.4,1.2-2.6,2.6-2.6c0.1,0,0.1,0,0.2,0c1.3-0.1,2.5,0.9,2.6,2.2c0,0.1,0,0.1,0,0.2l0,0
		c0,1.2-0.8,2.3-1.9,2.7l1.2,1.5c0.3-0.5,0.5-1.1,0.8-1.6l1.6,0.7c-0.3,0.8-0.7,1.6-1.1,2.3l1.3,1.5l-1.5,1L225.8,108.1z
		 M224.6,106.9l-1.8-2.1c-0.5,0.3-0.8,0.8-0.9,1.4l0,0c0,0.7,0.5,1.2,1.2,1.2c0,0,0.1,0,0.1,0C223.8,107.4,224.3,107.2,224.6,106.9
		L224.6,106.9z M224.6,101.3L224.6,101.3c0-0.5-0.3-0.9-0.7-0.9c0,0-0.1,0-0.1,0c-0.5,0-0.9,0.4-0.9,0.9c0,0,0,0,0,0.1l0,0
		c0,0.5,0.2,1,0.6,1.4C224.3,102.3,224.7,101.9,224.6,101.3L224.6,101.3z"/>
	<path class="st1" d="M135.8,114.6h2l3.7,10.3h-2.2l-0.8-2.2H135l-0.7,2.2h-2.1L135.8,114.6z M137.9,120.8l-1.1-3.3l-1.1,3.3
		L137.9,120.8z"/>
	<path class="st1" d="M142,123.9l0.9-1.5c0.6,0.5,1.3,0.8,2.1,0.9c0.6,0,0.8-0.3,0.8-0.6l0,0c0-0.5-0.6-0.6-1.4-1
		c-1.1-0.5-2.1-1-2.1-2.4l0,0c0-1.3,1.1-2.4,2.4-2.4c0.1,0,0.2,0,0.3,0c0.9,0,1.8,0.3,2.6,0.9l-0.8,1.5c-0.5-0.4-1.1-0.6-1.8-0.7
		c-0.5,0-0.8,0.2-0.8,0.5l0,0c0,0.4,0.6,0.6,1.4,1c1.1,0.5,2.1,1.1,2.1,2.3l0,0c0,1.3-1.1,2.4-2.4,2.5c-0.1,0-0.2,0-0.4,0
		C143.9,125,142.9,124.6,142,123.9z"/>
	<path class="st1" d="M148.3,123.9l0.9-1.5c0.6,0.5,1.3,0.8,2.1,0.9c0.6,0,0.8-0.3,0.8-0.6l0,0c0-0.5-0.6-0.6-1.4-1
		c-1.1-0.5-2.1-1-2.1-2.4l0,0c0-1.3,1.1-2.4,2.4-2.4c0.1,0,0.2,0,0.3,0c0.9,0,1.8,0.3,2.6,0.9l-0.8,1.5c-0.5-0.4-1.1-0.6-1.8-0.7
		c-0.5,0-0.8,0.2-0.8,0.5l0,0c0,0.4,0.6,0.6,1.4,1c1.1,0.5,2.1,1.1,2.1,2.3l0,0c0,1.3-1.1,2.4-2.4,2.5c-0.1,0-0.2,0-0.4,0
		C150.1,125,149.1,124.6,148.3,123.9z"/>
	<path class="st1" d="M154.9,121v-0.1c0-2.3,1.4-4,3.4-4c2.2,0,3.3,1.8,3.3,4.1c0,0.1,0,0.4,0,0.7H157c0.1,0.9,0.8,1.6,1.7,1.6
		c0.6,0,1.2-0.3,1.6-0.8l1.1,1.2c-0.7,0.8-1.7,1.2-2.8,1.2c-2,0-3.7-1.6-3.7-3.6C154.9,121.2,154.9,121.1,154.9,121z M159.7,120.3
		c-0.1-1.1-0.6-1.8-1.3-1.8c-0.8,0-1.2,0.6-1.4,1.8H159.7z"/>
	<path class="st1" d="M162.4,123.9l0.9-1.5c0.6,0.5,1.3,0.8,2.1,0.9c0.6,0,0.8-0.3,0.8-0.6l0,0c0-0.5-0.6-0.6-1.4-1
		c-1.1-0.5-2.1-1-2.1-2.4l0,0c0-1.3,1.1-2.4,2.4-2.4c0.1,0,0.2,0,0.3,0c0.9,0,1.8,0.3,2.6,0.9l-0.8,1.5c-0.5-0.4-1.1-0.6-1.8-0.7
		c-0.5,0-0.8,0.2-0.8,0.5l0,0c0,0.4,0.6,0.6,1.4,1c1.1,0.5,2.1,1.1,2.1,2.3l0,0c0,1.3-1.1,2.4-2.4,2.5c-0.1,0-0.2,0-0.4,0
		C164.3,125,163.3,124.6,162.4,123.9z"/>
	<path class="st1" d="M168.8,123.9l0.9-1.5c0.6,0.5,1.3,0.8,2.1,0.9c0.6,0,0.8-0.3,0.8-0.6l0,0c0-0.5-0.6-0.6-1.4-1
		c-1.1-0.5-2.1-1-2.1-2.4l0,0c0-1.3,1.1-2.4,2.4-2.4c0.1,0,0.2,0,0.3,0c0.9,0,1.8,0.3,2.6,0.9l-0.8,1.5c-0.5-0.4-1.1-0.6-1.8-0.7
		c-0.5,0-0.8,0.2-0.8,0.5l0,0c0,0.4,0.6,0.6,1.4,1c1.1,0.5,2.1,1.1,2.1,2.3l0,0c0,1.3-1.1,2.4-2.4,2.5c-0.1,0-0.2,0-0.4,0
		C170.7,125,169.6,124.6,168.8,123.9z"/>
	<path class="st1" d="M175.7,117h2.1v1c0.4-0.7,1.2-1.2,2-1.2c0.8,0,1.6,0.4,1.9,1.1c0.5-0.7,1.3-1.1,2.2-1.1c1.4,0,2.3,0.9,2.3,2.6
		v5.3h-2.1v-4.7c0-0.9-0.4-1.4-1.1-1.4c-0.7,0-1.1,0.5-1.1,1.4v4.7H180v-4.7c0-0.9-0.4-1.4-1.1-1.4s-1.1,0.5-1.1,1.4v4.7h-2.1
		L175.7,117z"/>
	<path class="st1" d="M187.6,121v-0.1c0-2.3,1.4-4,3.4-4c2.2,0,3.3,1.8,3.3,4.1c0,0.1,0,0.4,0,0.7h-4.7c0.1,0.9,0.8,1.6,1.7,1.6
		c0.6,0,1.2-0.3,1.6-0.8l1.1,1.2c-0.7,0.8-1.7,1.2-2.8,1.2c-2,0-3.7-1.6-3.7-3.6C187.6,121.2,187.6,121.1,187.6,121z M192.3,120.3
		c-0.1-1.1-0.6-1.8-1.3-1.8s-1.2,0.6-1.4,1.8H192.3z"/>
	<path class="st1" d="M195.7,117h2.1v1c0.4-0.7,1.2-1.2,2-1.2c1.5,0,2.3,1,2.3,2.6v5.3H200v-4.7c0-0.9-0.4-1.4-1.1-1.4
		c-0.7,0-1.1,0.5-1.1,1.4v4.7h-2.1V117z"/>
	<path class="st1" d="M204,122.9v-4.1h-0.8V117h0.8v-2h2.1v2h1.5v1.8h-1.5v3.7c0,0.5,0.2,0.7,0.6,0.7c0.3,0,0.6-0.1,0.9-0.2v1.7
		c-0.5,0.3-1,0.4-1.5,0.4C204.9,125,204,124.5,204,122.9z"/>
	<path class="st1" d="M212.5,114.6h2.1v10.2h-2.1V114.6z"/>
	<path class="st1" d="M216.5,117h2.1v1c0.4-0.7,1.2-1.2,2-1.2c1.5,0,2.3,1,2.3,2.6v5.3h-2.1v-4.7c0-0.9-0.4-1.4-1.1-1.4
		c-0.7,0-1.1,0.5-1.1,1.4v4.7h-2.1L216.5,117z"/>
	<path class="st1" d="M223.9,123.9l0.9-1.5c0.6,0.5,1.3,0.8,2.1,0.9c0.6,0,0.8-0.3,0.8-0.6l0,0c0-0.5-0.6-0.6-1.4-1
		c-1.1-0.5-2.1-1-2.1-2.4l0,0c0-1.3,1.1-2.4,2.4-2.4c0.1,0,0.2,0,0.3,0c0.9,0,1.8,0.3,2.6,0.9l-0.8,1.5c-0.5-0.4-1.1-0.6-1.8-0.7
		c-0.5,0-0.8,0.2-0.8,0.5l0,0c0,0.4,0.6,0.6,1.4,1c1.1,0.5,2.1,1.1,2.1,2.3l0,0c0,1.3-1.1,2.4-2.4,2.5c-0.1,0-0.2,0-0.3,0
		C225.8,125,224.8,124.6,223.9,123.9z"/>
	<path class="st1" d="M231.1,122.9v-4.1h-0.8V117h0.8v-2h2.1v2h1.5v1.8h-1.5v3.7c0,0.5,0.2,0.7,0.6,0.7c0.3,0,0.6-0.1,0.9-0.2v1.7
		c-0.5,0.3-1,0.4-1.5,0.4C232.1,125,231.1,124.5,231.1,122.9z"/>
	<path class="st1" d="M236.1,114.3h2.2v1.9h-2.2V114.3z M236.1,117h2.1v7.8h-2.1V117z"/>
	<path class="st1" d="M240.3,122.9v-4.1h-0.8V117h0.8v-2h2.1v2h1.5v1.8h-1.5v3.7c0,0.5,0.2,0.7,0.6,0.7c0.3,0,0.6-0.1,0.9-0.2v1.7
		c-0.5,0.3-1,0.4-1.5,0.4C241.2,125,240.3,124.5,240.3,122.9z"/>
	<path class="st1" d="M245.2,122.3V117h2.1v4.7c0,0.9,0.4,1.4,1.1,1.4c0.7,0,1.1-0.5,1.1-1.4V117h2.1v7.8h-2.1v-1
		c-0.4,0.7-1.2,1.2-2,1.2C246.1,125,245.2,124,245.2,122.3z"/>
	<path class="st1" d="M253.6,122.9v-4.1h-0.8V117h0.8v-2h2.1v2h1.5v1.8h-1.5v3.7c0,0.5,0.2,0.7,0.6,0.7c0.3,0,0.6-0.1,0.9-0.2v1.7
		c-0.5,0.3-1,0.4-1.5,0.4C254.5,125,253.6,124.5,253.6,122.9z"/>
	<path class="st1" d="M258.1,121v-0.1c0-2.3,1.4-4,3.4-4c2.2,0,3.3,1.8,3.3,4.1c0,0.1,0,0.4,0,0.7h-4.7c0.1,0.9,0.8,1.6,1.7,1.6
		c0.6,0,1.2-0.3,1.6-0.8l1.1,1.2c-0.7,0.8-1.7,1.2-2.8,1.2c-2,0-3.7-1.6-3.7-3.6C258.1,121.2,258.1,121.1,258.1,121z M262.8,120.3
		c-0.1-1.1-0.5-1.8-1.3-1.8s-1.2,0.6-1.4,1.8H262.8z"/>
</g>
<line class="st2" x1="377" y1="31.6" x2="377" y2="122.8"/>
<g>
	<rect x="411.1" y="54.9" class="st3" width="341.1" height="47.6"/>
	<path d="M418.5,55.5h2.5l6.8,15.5h-2.9l-1.6-3.7h-7.3l-1.6,3.7h-2.8L418.5,55.5z M422.4,64.9l-2.7-6.2l-2.6,6.2H422.4z"/>
	<path d="M428.9,65.2L428.9,65.2c0-3.3,2.6-6.1,6.1-6.1c2.2,0,3.5,0.8,4.6,2l-1.7,1.8c-0.8-0.8-1.7-1.5-3-1.5
		c-1.9,0-3.4,1.7-3.4,3.7v0c0,2.1,1.4,3.7,3.5,3.7c1.3,0,2.2-0.6,3-1.4l1.6,1.6c-1.1,1.3-2.5,2.2-4.8,2.2
		C431.5,71.2,428.9,68.5,428.9,65.2z"/>
	<path d="M441.2,65.2L441.2,65.2c0-3.3,2.6-6.1,6.1-6.1c2.2,0,3.5,0.8,4.6,2l-1.7,1.8c-0.8-0.8-1.7-1.5-3-1.5
		c-1.9,0-3.4,1.7-3.4,3.7v0c0,2.1,1.4,3.7,3.5,3.7c1.3,0,2.2-0.6,3-1.4l1.6,1.6c-1.1,1.3-2.5,2.2-4.8,2.2
		C443.7,71.2,441.2,68.5,441.2,65.2z"/>
	<path d="M453.4,65.2L453.4,65.2c0-3.4,2.4-6.1,5.7-6.1c3.7,0,5.6,2.9,5.6,6.2c0,0.2,0,0.5,0,0.7h-8.5c0.3,1.9,1.6,2.9,3.3,2.9
		c1.3,0,2.2-0.5,3.1-1.4l1.6,1.4c-1.1,1.3-2.6,2.2-4.8,2.2C456,71.2,453.4,68.8,453.4,65.2z M462,64.4c-0.2-1.7-1.2-3.1-2.9-3.1
		c-1.6,0-2.8,1.3-3,3.1H462z"/>
	<path d="M466.4,69.5l1.2-1.8c1.3,0.9,2.6,1.4,3.8,1.4c1.1,0,1.8-0.5,1.8-1.3v0c0-0.9-1.2-1.2-2.6-1.6c-1.7-0.5-3.6-1.2-3.6-3.4v0
		c0-2.2,1.8-3.6,4.1-3.6c1.5,0,3,0.5,4.3,1.3l-1.1,1.9c-1.1-0.7-2.3-1.1-3.3-1.1c-1,0-1.6,0.5-1.6,1.1v0c0,0.9,1.3,1.2,2.6,1.6
		c1.7,0.5,3.6,1.3,3.6,3.4v0c0,2.4-1.9,3.7-4.3,3.7C469.6,71.2,467.8,70.6,466.4,69.5z"/>
	<path d="M477.2,69.5l1.2-1.8c1.3,0.9,2.6,1.4,3.8,1.4c1.1,0,1.8-0.5,1.8-1.3v0c0-0.9-1.2-1.2-2.6-1.6c-1.7-0.5-3.6-1.2-3.6-3.4v0
		c0-2.2,1.8-3.6,4.1-3.6c1.5,0,3,0.5,4.3,1.3l-1.1,1.9c-1.1-0.7-2.3-1.1-3.3-1.1c-1,0-1.6,0.5-1.6,1.1v0c0,0.9,1.3,1.2,2.6,1.6
		c1.7,0.5,3.6,1.3,3.6,3.4v0c0,2.4-1.9,3.7-4.3,3.7C480.5,71.2,478.6,70.6,477.2,69.5z"/>
	<path d="M489.2,55.1h2.9v2.5h-2.9V55.1z M489.3,59.4h2.7V71h-2.7V59.4z"/>
	<path d="M498.1,69.2V71h-2.7V54.9h2.7v6.4c0.9-1.2,2.1-2.2,4-2.2c2.7,0,5.4,2.2,5.4,6v0c0,3.9-2.6,6-5.4,6
		C500.1,71.2,498.9,70.3,498.1,69.2z M504.7,65.2L504.7,65.2c0-2.3-1.5-3.8-3.3-3.8c-1.8,0-3.4,1.5-3.4,3.7v0c0,2.2,1.6,3.7,3.4,3.7
		C503.2,68.9,504.7,67.5,504.7,65.2z"/>
	<path d="M510.3,54.9h2.7V71h-2.7V54.9z"/>
	<path d="M515.8,65.2L515.8,65.2c0-3.4,2.4-6.1,5.7-6.1c3.7,0,5.6,2.9,5.6,6.2c0,0.2,0,0.5,0,0.7h-8.5c0.3,1.9,1.6,2.9,3.3,2.9
		c1.3,0,2.2-0.5,3.1-1.4l1.6,1.4c-1.1,1.3-2.6,2.2-4.8,2.2C518.4,71.2,515.8,68.8,515.8,65.2z M524.5,64.4c-0.2-1.7-1.2-3.1-2.9-3.1
		c-1.6,0-2.8,1.3-3,3.1H524.5z"/>
	<path d="M540.4,58.1h-4.9v-2.5h12.5v2.5h-4.9V71h-2.7V58.1z"/>
	<path d="M547.5,65.2L547.5,65.2c0-3.4,2.4-6.1,5.7-6.1c3.7,0,5.6,2.9,5.6,6.2c0,0.2,0,0.5,0,0.7h-8.5c0.3,1.9,1.6,2.9,3.3,2.9
		c1.3,0,2.2-0.5,3.1-1.4l1.6,1.4c-1.1,1.3-2.6,2.2-4.8,2.2C550.1,71.2,547.5,68.8,547.5,65.2z M556.1,64.4c-0.2-1.7-1.2-3.1-2.9-3.1
		c-1.6,0-2.8,1.3-3,3.1H556.1z"/>
	<path d="M560.6,67.6L560.6,67.6c0-2.6,2-3.8,4.8-3.8c1.3,0,2.2,0.2,3.1,0.5v-0.3c0-1.6-1-2.5-2.9-2.5c-1.3,0-2.3,0.3-3.3,0.7
		l-0.7-2.1c1.3-0.6,2.6-0.9,4.4-0.9c1.7,0,3,0.5,3.9,1.3c0.9,0.8,1.3,2.1,1.3,3.6V71h-2.6v-1.5c-0.8,0.9-2,1.7-3.8,1.7
		C562.6,71.2,560.6,70,560.6,67.6z M568.6,66.8V66c-0.7-0.3-1.6-0.5-2.6-0.5c-1.7,0-2.7,0.7-2.7,1.9v0c0,1.1,1,1.8,2.3,1.8
		C567.2,69.3,568.6,68.3,568.6,66.8z"/>
	<path d="M573.7,65.2L573.7,65.2c0-3.3,2.6-6.1,6.1-6.1c2.2,0,3.5,0.8,4.6,2l-1.7,1.8c-0.8-0.8-1.7-1.5-3-1.5
		c-1.9,0-3.4,1.7-3.4,3.7v0c0,2.1,1.4,3.7,3.5,3.7c1.3,0,2.2-0.6,3-1.4l1.6,1.6c-1.1,1.3-2.5,2.2-4.8,2.2
		C576.2,71.2,573.7,68.5,573.7,65.2z"/>
	<path d="M586.8,54.9h2.7v6.2c0.7-1.1,1.8-2,3.6-2c2.6,0,4.1,1.8,4.1,4.4V71h-2.7v-6.6c0-1.8-0.9-2.8-2.5-2.8
		c-1.5,0-2.6,1.1-2.6,2.9V71h-2.7V54.9z"/>
	<path d="M600.5,55.1h2.9v2.5h-2.9V55.1z M600.6,59.4h2.7V71h-2.7V59.4z"/>
	<path d="M606.8,59.4h2.7v1.8c0.7-1.1,1.8-2,3.6-2c2.6,0,4.1,1.8,4.1,4.4V71h-2.7v-6.6c0-1.8-0.9-2.8-2.5-2.8
		c-1.5,0-2.6,1.1-2.6,2.9V71h-2.7V59.4z"/>
	<path d="M620.4,73.2l1-2c1.3,0.8,2.6,1.2,4.1,1.2c2.4,0,3.7-1.2,3.7-3.5v-0.9c-1,1.2-2.2,2.1-4.1,2.1c-2.8,0-5.3-2-5.3-5.4v0
		c0-3.4,2.6-5.5,5.3-5.5c2,0,3.2,0.9,4.1,2v-1.7h2.7v9.2c0,2-0.5,3.4-1.5,4.4c-1.1,1.1-2.7,1.6-4.8,1.6
		C623.7,74.5,621.9,74.1,620.4,73.2z M629.2,64.6L629.2,64.6c0-1.9-1.6-3.2-3.4-3.2c-1.8,0-3.3,1.3-3.3,3.2v0c0,1.9,1.5,3.2,3.3,3.2
		C627.7,67.8,629.2,66.5,629.2,64.6z"/>
	<path d="M634.3,73.1c1.3-0.3,2-0.9,1.9-2.1H635v-3h2.9v2.6c0,2.4-1.2,3.5-3.4,3.7L634.3,73.1z"/>
	<path d="M648,55.6h2.7v12.9h8.1V71H648V55.6z"/>
	<path d="M660.5,65.2L660.5,65.2c0-3.4,2.4-6.1,5.7-6.1c3.7,0,5.6,2.9,5.6,6.2c0,0.2,0,0.5,0,0.7h-8.5c0.3,1.9,1.6,2.9,3.3,2.9
		c1.3,0,2.2-0.5,3.1-1.4l1.6,1.4c-1.1,1.3-2.6,2.2-4.8,2.2C663.1,71.2,660.5,68.8,660.5,65.2z M669.1,64.4c-0.2-1.7-1.2-3.1-2.9-3.1
		c-1.6,0-2.8,1.3-3,3.1H669.1z"/>
	<path d="M673.6,67.6L673.6,67.6c0-2.6,2-3.8,4.8-3.8c1.3,0,2.2,0.2,3.1,0.5v-0.3c0-1.6-1-2.5-2.9-2.5c-1.3,0-2.3,0.3-3.3,0.7
		l-0.7-2.1c1.3-0.6,2.6-0.9,4.4-0.9c1.7,0,3,0.5,3.9,1.3c0.9,0.8,1.3,2.1,1.3,3.6V71h-2.6v-1.5c-0.8,0.9-2,1.7-3.8,1.7
		C675.6,71.2,673.6,70,673.6,67.6z M681.6,66.8V66c-0.7-0.3-1.6-0.5-2.6-0.5c-1.7,0-2.7,0.7-2.7,1.9v0c0,1.1,1,1.8,2.3,1.8
		C680.3,69.3,681.6,68.3,681.6,66.8z"/>
	<path d="M687.3,59.4h2.7V62c0.7-1.7,2.1-2.9,4.1-2.8V62h-0.2c-2.3,0-4,1.5-4,4.6V71h-2.7V59.4z"/>
	<path d="M696.4,59.4h2.7v1.8c0.7-1.1,1.8-2,3.6-2c2.6,0,4.1,1.8,4.1,4.4V71h-2.7v-6.6c0-1.8-0.9-2.8-2.5-2.8
		c-1.5,0-2.6,1.1-2.6,2.9V71h-2.7V59.4z"/>
	<path d="M710.1,55.1h2.9v2.5h-2.9V55.1z M710.2,59.4h2.7V71h-2.7V59.4z"/>
	<path d="M716.3,59.4h2.7v1.8c0.7-1.1,1.8-2,3.6-2c2.6,0,4.1,1.8,4.1,4.4V71h-2.7v-6.6c0-1.8-0.9-2.8-2.5-2.8
		c-1.5,0-2.6,1.1-2.6,2.9V71h-2.7V59.4z"/>
	<path d="M729.9,73.2l1-2c1.3,0.8,2.6,1.2,4.1,1.2c2.4,0,3.7-1.2,3.7-3.5v-0.9c-1,1.2-2.2,2.1-4.1,2.1c-2.8,0-5.3-2-5.3-5.4v0
		c0-3.4,2.6-5.5,5.3-5.5c2,0,3.2,0.9,4.1,2v-1.7h2.7v9.2c0,2-0.5,3.4-1.5,4.4c-1.1,1.1-2.7,1.6-4.8,1.6
		C733.2,74.5,731.4,74.1,729.9,73.2z M738.8,64.6L738.8,64.6c0-1.9-1.6-3.2-3.4-3.2c-1.8,0-3.3,1.3-3.3,3.2v0c0,1.9,1.5,3.2,3.3,3.2
		C737.2,67.8,738.8,66.5,738.8,64.6z"/>
	<path d="M743.8,73.1c1.3-0.3,2-0.9,1.9-2.1h-1.1v-3h2.9v2.6c0,2.4-1.2,3.5-3.4,3.7L743.8,73.1z"/>
	<path d="M421.7,95.6c-1.3,1.2-2.9,2-4.7,2c-2.9,0-5.1-1.7-5.1-4.4v0c0-2,1.2-3.4,3.3-4.3c-0.9-1.1-1.3-2.1-1.3-3.2v0
		c0-2.1,1.7-3.9,4.4-3.9c2.4,0,4.1,1.7,4.1,3.7v0c0,2-1.3,3.2-3.4,4l2.6,2.7c0.6-0.9,1.1-1.9,1.6-3l2,1.1c-0.6,1.2-1.3,2.4-2.1,3.5
		l2.4,2.5l-2,1.5L421.7,95.6z M420.1,94l-3.4-3.5c-1.4,0.6-2,1.6-2,2.6v0c0,1.3,1.1,2.2,2.6,2.2C418.3,95.4,419.2,94.9,420.1,94z
		 M420,85.6L420,85.6c0-1.1-0.7-1.8-1.7-1.8c-1.1,0-1.8,0.8-1.8,1.8v0c0,0.8,0.3,1.3,1.2,2.3C419.2,87.5,420,86.7,420,85.6z"/>
	<path d="M440.4,81.9h2.5l6.8,15.5h-2.9l-1.6-3.7H438l-1.6,3.7h-2.8L440.4,81.9z M444.3,91.3l-2.7-6.2l-2.6,6.2H444.3z"/>
	<path d="M451.1,95.9l1.2-1.8c1.3,0.9,2.6,1.4,3.8,1.4c1.1,0,1.8-0.5,1.8-1.3v0c0-0.9-1.2-1.2-2.6-1.6c-1.7-0.5-3.6-1.2-3.6-3.4v0
		c0-2.2,1.8-3.6,4.1-3.6c1.5,0,3,0.5,4.3,1.3l-1.1,1.9c-1.1-0.7-2.3-1.1-3.3-1.1c-1,0-1.6,0.5-1.6,1.1v0c0,0.9,1.3,1.2,2.6,1.7
		c1.7,0.5,3.6,1.3,3.6,3.4v0c0,2.4-1.9,3.7-4.3,3.7C454.4,97.6,452.5,97,451.1,95.9z"/>
	<path d="M461.9,95.9l1.2-1.8c1.3,0.9,2.6,1.4,3.8,1.4c1.1,0,1.8-0.5,1.8-1.3v0c0-0.9-1.2-1.2-2.6-1.6c-1.7-0.5-3.6-1.2-3.6-3.4v0
		c0-2.2,1.8-3.6,4.1-3.6c1.5,0,3,0.5,4.3,1.3l-1.1,1.9c-1.1-0.7-2.3-1.1-3.3-1.1c-1,0-1.6,0.5-1.6,1.1v0c0,0.9,1.3,1.2,2.6,1.7
		c1.7,0.5,3.6,1.3,3.6,3.4v0c0,2.4-1.9,3.7-4.3,3.7C465.2,97.6,463.3,97,461.9,95.9z"/>
	<path d="M473.2,91.6L473.2,91.6c0-3.4,2.4-6.1,5.7-6.1c3.7,0,5.6,2.9,5.6,6.2c0,0.2,0,0.5,0,0.7h-8.5c0.3,1.9,1.6,2.9,3.3,2.9
		c1.3,0,2.2-0.5,3.1-1.4l1.6,1.4c-1.1,1.3-2.6,2.2-4.8,2.2C475.8,97.6,473.2,95.2,473.2,91.6z M481.8,90.8c-0.2-1.7-1.2-3.1-2.9-3.1
		c-1.6,0-2.8,1.3-3,3.1H481.8z"/>
	<path d="M486.2,95.9l1.2-1.8c1.3,0.9,2.6,1.4,3.8,1.4c1.1,0,1.8-0.5,1.8-1.3v0c0-0.9-1.2-1.2-2.6-1.6c-1.7-0.5-3.6-1.2-3.6-3.4v0
		c0-2.2,1.8-3.6,4.1-3.6c1.5,0,3,0.5,4.3,1.3l-1.1,1.9c-1.1-0.7-2.3-1.1-3.3-1.1c-1,0-1.6,0.5-1.6,1.1v0c0,0.9,1.3,1.2,2.6,1.7
		c1.7,0.5,3.6,1.3,3.6,3.4v0c0,2.4-1.9,3.7-4.3,3.7C489.5,97.6,487.6,97,486.2,95.9z"/>
	<path d="M497,95.9l1.2-1.8c1.3,0.9,2.6,1.4,3.8,1.4c1.1,0,1.8-0.5,1.8-1.3v0c0-0.9-1.2-1.2-2.6-1.6c-1.7-0.5-3.6-1.2-3.6-3.4v0
		c0-2.2,1.8-3.6,4.1-3.6c1.5,0,3,0.5,4.3,1.3l-1.1,1.9c-1.1-0.7-2.3-1.1-3.3-1.1c-1,0-1.6,0.5-1.6,1.1v0c0,0.9,1.3,1.2,2.6,1.7
		c1.7,0.5,3.6,1.3,3.6,3.4v0c0,2.4-1.9,3.7-4.3,3.7C500.3,97.6,498.4,97,497,95.9z"/>
	<path d="M508.9,85.8h2.7v1.8c0.7-1,1.8-2,3.5-2c1.7,0,2.9,0.8,3.5,2c0.9-1.2,2.2-2,3.9-2c2.5,0,4.1,1.6,4.1,4.4v7.4H524v-6.6
		c0-1.8-0.9-2.8-2.4-2.8c-1.5,0-2.5,1-2.5,2.9v6.6h-2.7v-6.6c0-1.8-0.9-2.8-2.4-2.8c-1.5,0-2.5,1.1-2.5,2.9v6.6h-2.7V85.8z"/>
	<path d="M529.2,91.6L529.2,91.6c0-3.4,2.4-6.1,5.7-6.1c3.7,0,5.6,2.9,5.6,6.2c0,0.2,0,0.5,0,0.7h-8.5c0.3,1.9,1.6,2.9,3.3,2.9
		c1.3,0,2.2-0.5,3.1-1.4l1.6,1.4c-1.1,1.3-2.6,2.2-4.8,2.2C531.8,97.6,529.2,95.2,529.2,91.6z M537.8,90.8c-0.2-1.7-1.2-3.1-2.9-3.1
		c-1.6,0-2.8,1.3-3,3.1H537.8z"/>
	<path d="M543.1,85.8h2.7v1.8c0.7-1.1,1.8-2,3.6-2c2.6,0,4.1,1.8,4.1,4.4v7.4h-2.7v-6.6c0-1.8-0.9-2.8-2.5-2.8
		c-1.5,0-2.6,1.1-2.6,2.9v6.6h-2.7V85.8z"/>
	<path d="M557.3,94.2v-6.1h-1.5v-2.3h1.5v-3.2h2.7v3.2h3.1v2.3H560v5.7c0,1,0.5,1.5,1.4,1.5c0.6,0,1.1-0.1,1.7-0.4V97
		c-0.7,0.4-1.4,0.6-2.4,0.6C558.7,97.6,557.3,96.7,557.3,94.2z"/>
	<path d="M571.7,95.1l1.6-1.9c1.5,1.3,3,2,4.9,2c1.7,0,2.7-0.8,2.7-1.9v0c0-1.1-0.6-1.7-3.5-2.4c-3.3-0.8-5.1-1.8-5.1-4.6v0
		c0-2.6,2.2-4.5,5.3-4.5c2.2,0,4,0.7,5.6,1.9l-1.5,2c-1.4-1-2.8-1.6-4.2-1.6c-1.6,0-2.5,0.8-2.5,1.8v0c0,1.2,0.7,1.7,3.7,2.4
		c3.3,0.8,4.9,2,4.9,4.5v0c0,2.9-2.3,4.6-5.5,4.6C575.8,97.6,573.5,96.8,571.7,95.1z"/>
	<path d="M594.2,85.8h2.8l-4.6,11.9c-0.9,2.4-2,3.3-3.8,3.3c-1.1,0-1.9-0.3-2.8-0.7l0.9-2c0.5,0.3,1,0.4,1.6,0.4
		c0.7,0,1.2-0.3,1.7-1.3l-4.8-11.6h2.9l3.3,8.6L594.2,85.8z"/>
	<path d="M597.9,95.9l1.2-1.8c1.3,0.9,2.6,1.4,3.8,1.4c1.1,0,1.8-0.5,1.8-1.3v0c0-0.9-1.2-1.2-2.6-1.6c-1.7-0.5-3.6-1.2-3.6-3.4v0
		c0-2.2,1.8-3.6,4.1-3.6c1.5,0,3,0.5,4.3,1.3l-1.1,1.9c-1.1-0.7-2.3-1.1-3.3-1.1c-1,0-1.6,0.5-1.6,1.1v0c0,0.9,1.3,1.2,2.6,1.7
		c1.7,0.5,3.6,1.3,3.6,3.4v0c0,2.4-1.9,3.7-4.3,3.7C601.2,97.6,599.3,97,597.9,95.9z"/>
	<path d="M610.2,94.2v-6.1h-1.5v-2.3h1.5v-3.2h2.7v3.2h3.1v2.3h-3.1v5.7c0,1,0.5,1.5,1.4,1.5c0.6,0,1.1-0.1,1.7-0.4V97
		c-0.7,0.4-1.4,0.6-2.4,0.6C611.6,97.6,610.2,96.7,610.2,94.2z"/>
	<path d="M617.7,91.6L617.7,91.6c0-3.4,2.4-6.1,5.7-6.1c3.7,0,5.6,2.9,5.6,6.2c0,0.2,0,0.5,0,0.7h-8.5c0.3,1.9,1.6,2.9,3.3,2.9
		c1.3,0,2.2-0.5,3.1-1.4l1.6,1.4c-1.1,1.3-2.6,2.2-4.8,2.2C620.3,97.6,617.7,95.2,617.7,91.6z M626.3,90.8c-0.2-1.7-1.2-3.1-2.9-3.1
		c-1.6,0-2.8,1.3-3,3.1H626.3z"/>
	<path d="M631.6,85.8h2.7v1.8c0.7-1,1.8-2,3.5-2c1.7,0,2.9,0.8,3.5,2c0.9-1.2,2.2-2,3.9-2c2.5,0,4.1,1.6,4.1,4.4v7.4h-2.7v-6.6
		c0-1.8-0.9-2.8-2.4-2.8c-1.5,0-2.5,1-2.5,2.9v6.6h-2.7v-6.6c0-1.8-0.9-2.8-2.4-2.8c-1.5,0-2.5,1.1-2.5,2.9v6.6h-2.7V85.8z"/>
	<path d="M651.6,95.9l1.2-1.8c1.3,0.9,2.6,1.4,3.8,1.4c1.1,0,1.8-0.5,1.8-1.3v0c0-0.9-1.2-1.2-2.6-1.6c-1.7-0.5-3.6-1.2-3.6-3.4v0
		c0-2.2,1.8-3.6,4.1-3.6c1.5,0,3,0.5,4.3,1.3l-1.1,1.9c-1.1-0.7-2.3-1.1-3.3-1.1c-1,0-1.6,0.5-1.6,1.1v0c0,0.9,1.3,1.2,2.6,1.7
		c1.7,0.5,3.6,1.3,3.6,3.4v0c0,2.4-1.9,3.7-4.3,3.7C654.8,97.6,653,97,651.6,95.9z"/>
</g>
</svg>
