<?xml version="1.0" encoding="UTF-8"?>
<svg id="a" xmlns="http://www.w3.org/2000/svg" version="1.1" viewBox="0 0 512 512">
  <!-- Generator: Adobe Illustrator 29.0.1, SVG Export Plug-In . SVG Version: 2.1.0 Build 192)  -->
  <defs>
    <style>
      .st0 {
        fill: #023047;
      }
    </style>
  </defs>
  <path class="st0" d="M122.3,214.9c-9.1,0-16.2,3.9-21.3,11.7s-7.7,19.1-7.7,33.8,2.6,25.8,7.7,33.3c5.2,7.5,12.5,11.2,21.9,11.2s19.2-3.3,23.8-10c4.6-6.7,7.1-16.8,7.3-30.3v-4.4c0-14.6-2.2-25.9-6.7-33.6-4.5-7.8-12.8-11.7-25.1-11.7Z"/>
  <path class="st0" d="M256,8C119,8,8,119,8,256s111,248,248,248,248-111,248-248S393,8,256,8ZM192.5,335h-31.5l-8-19.5h-1.8c-2.6,4.1-5.9,7.9-9.8,11.3s-8.6,6-13.9,8-11.7,3-19,3c-16.8,0-30.5-6.6-41-19.7-10.6-13.2-15.8-32.5-15.8-58s5.3-45.3,16-58.6c10.7-13.3,24.7-19.9,41.9-19.9s13.5,1,19,3c5.5,2,10.2,4.6,14.2,8,4,3.3,7.4,7.1,10.2,11.2h1.3c-.5-2.9-1.2-7.1-2-12.7-.8-5.6-1.1-11.4-1.1-17.3v-48.2h41.2v209.7ZM367.3,292.8c-3.4,9.7-8.3,17.9-14.7,24.6-6.4,6.7-14.2,11.7-23.2,15.2s-19.2,5.1-30.5,5.1-20.3-1.7-29.2-5.1c-8.9-3.4-16.5-8.5-23-15.2-6.5-6.7-11.5-14.9-15.1-24.6-3.6-9.7-5.3-20.8-5.3-33.4s3-30.9,8.9-42.5,14.4-20.4,25.3-26.4c11-6,24-9,39.2-9s26.6,3,37.5,9c10.9,6,19.5,14.8,25.7,26.4,6.2,11.6,9.4,25.7,9.4,42.5s-1.7,23.7-5.1,33.4ZM411.1,129.5c4.4-2.8,9.6-4.2,15.8-4.2s11.4,1.4,15.8,4.2c4.4,2.8,6.6,8.1,6.6,15.8s-2.2,12.9-6.6,15.8c-4.4,2.9-9.7,4.4-15.8,4.4s-11.5-1.5-15.8-4.4c-4.4-2.9-6.5-8.2-6.5-15.8s2.2-13,6.5-15.8ZM447.5,335h-41.1v-150.7h41.1v150.7Z"/>
  <path class="st0" d="M317.1,219.6c-4.6-3.3-10.6-5-17.9-5-10.9,0-18.8,3.7-23.7,11.2-4.9,7.5-7.3,18.6-7.3,33.6s1.1,18.2,3.2,24.9,5.5,11.8,10.1,15.2c4.6,3.4,10.6,5.1,17.9,5.1s13.2-1.7,17.7-5.1c4.5-3.4,7.9-8.5,10-15.2,2.1-6.7,3.2-15,3.2-24.9s-1.1-18.3-3.2-24.9c-2.1-6.6-5.5-11.6-10-14.9Z"/>
</svg>